<?xml version="1.0" encoding="UTF-8"?>
<svg width="175px" height="125px" viewBox="0 0 175 235" version="1.1" xmlns="http://www.w3.org/2000/svg" xmlns:xlink="http://www.w3.org/1999/xlink">
    <defs>
        <path d="M37.3296971,47.0051028 C36.752025,47.0051028 36.5257041,47.3717117 36.5257041,48.0082071 C36.5257041,48.6447026 36.3436978,53.3731771 36.3436978,54.3450807 C36.3436978,55.3169842 36.5257041,61.7193794 36.5257041,63.3277784 C36.5257041,64.9377374 36.3436978,75.4633125 36.3436978,76.3696944 C36.3436978,77.2745163 36.3769338,80.4913143 36.3769338,81.3290546 C36.3769338,82.1683549 36.5257041,85.2197889 36.5257041,86.2915349 C36.5257041,87.3648409 36.3864297,87.7064891 37.2157453,87.2337977 C38.0434783,86.7611062 38.0434783,87.4319225 38.0434783,87.9670155 L38.0434783,89.6440561 C38.0434783,90.4817964 37.9849197,91.3101765 37.1397775,91.7891081 C36.2946353,92.2664796 35.1867709,92.5940876 34.5758629,92.8951749 C33.9633722,93.1978222 32.2430171,94.5628553 31.4263628,95.0277466 C30.6049606,95.4926378 30.1744761,95.4427166 30.1744761,94.303889 C30.1744761,93.1635014 30.1127523,91.2883359 30.8217854,90.8842861 C31.5276533,90.4817964 32.2651744,90.1885093 32.0151136,89.3024078 C31.7587221,88.4147463 29.9149194,80.4928743 28.9637387,77.878251 C28.0109754,75.2605075 25.9709223,67.5196 25.7335228,66.5118155 C25.4945406,65.5071512 24.388259,62.5493195 24.1840954,61.8348222 C23.9799318,61.1203249 23.7662723,61.5181345 23.7662723,62.1546299 C23.7662723,62.7926854 24.0321597,80.3914719 23.9973411,81.3961362 C23.9641052,82.4023606 23.7662723,86.5598614 23.7662723,87.3976017 C23.7662723,88.235342 23.9419479,90.9841286 23.7662723,91.9217113 C23.589014,92.8624141 23.7662723,93.8343176 23.7662723,94.1697258 C23.7662723,94.5051339 23.9261213,94.7797005 24.4626441,94.4739331 C24.9975844,94.1697258 26.1814165,93.6471131 26.1814165,95.7344437 C26.1814165,97.8233343 25.9835836,98.1228616 24.8757193,98.7484367 C23.7678549,99.377132 23.0793964,99.4988149 22.2627421,99.9683863 C21.4476705,100.437958 19.5057426,101.79051 18.6970016,102.250722 C17.88193,102.710933 17.3913043,101.77959 17.3913043,100.606442 C17.3913043,99.4317333 17.5052561,98.4411093 18.6558524,97.7858934 C19.8080313,97.1291175 19.8080313,96.7843491 19.8080313,95.2757926 C19.8080313,93.767236 19.9536363,83.1059377 19.9536363,79.1840026 C19.9536363,75.2620676 19.8080313,60.4120677 19.8080313,58.3340974 L19.8080313,48.2422128 C19.8080313,47.5729566 19.6798355,47.0051028 18.9992903,47.0051028 C18.3187451,47.0051028 17.3913043,46.6681347 17.3913043,44.991094 C17.3913043,43.3156134 18.5909632,43.1034483 19.3047443,43.1034483 C20.0185255,43.1034483 21.1406338,43.214211 21.9936893,43.214211 C22.8419969,43.214211 23.9292866,43.1034483 24.9152859,43.1034483 C25.9028678,43.1034483 26.1814165,43.9521088 26.1814165,45.0581756 C26.1814165,46.1642424 25.784168,47.0051028 24.9516871,47.0051028 C24.1160409,47.0051028 24.237906,47.5869969 24.4658095,48.3950965 C24.698461,49.2016361 25.6797123,53.2374539 26.1814165,55.1485002 C26.6847035,57.0595465 27.7419226,59.887895 28.2974374,61.8348222 C28.8529523,63.7817494 29.9149194,68.1560954 30.1539015,69.1279989 C30.391301,70.0999025 31.9264845,74.5709708 32.1005774,75.1840657 C32.2762531,75.7956005 32.5674631,75.7659598 32.5674631,74.8595778 C32.5674631,73.9547559 32.7716267,67.8877689 32.7716267,67.0500286 C32.7716267,66.2107282 32.3981181,61.5524553 32.3981181,58.568103 C32.3981181,55.5853107 32.5674631,49.7850902 32.5674631,48.5776209 C32.5674631,47.3717117 32.2620091,47.0051028 31.4453548,47.0051028 C30.6318658,47.0051028 30.1744761,46.3327265 30.1744761,45.6619103 C30.1744761,44.991094 30.221956,43.1034483 31.3092458,43.1034483 C32.3981181,43.1034483 33.6579181,43.214211 34.5078084,43.214211 C35.3576986,43.214211 36.6839705,43.1034483 37.1255335,43.1034483 C37.5670966,43.1034483 38.0434783,43.3483742 38.0434783,44.8569308 C38.0434783,46.3654873 37.9073692,47.0051028 37.3296971,47.0051028 Z M52.3848805,74.4343498 C53.1444819,74.4343498 54.3016029,74.2941474 54.3016029,75.8348156 C54.3016029,77.3754839 54.3478261,78.813337 54.3478261,79.6171639 C54.3478261,80.4209908 54.2831136,80.8634072 54.0319675,81.3073813 C53.7808214,81.7497977 53.5127268,82.3604569 52.9981084,82.6642287 C52.4850308,82.9695583 50.394201,84.5164577 48.5082941,85.3296314 C46.6208464,86.1459207 44.5454244,87.6819156 43.8320462,88.1040805 C43.118668,88.5278032 42.8243803,88.3580025 42.3883413,88.1040805 C41.9507616,87.8517162 41.0401644,87.3236206 40.7042758,87.1304529 C40.3714687,86.9357274 40.2173913,86.915476 40.2173913,85.8109929 C40.2173913,84.7065098 40.3637648,74.138367 40.3637648,72.6444329 C40.3637648,71.148941 40.2173913,59.0307832 40.2173913,57.7580573 C40.2173913,56.4853314 40.3637648,51.7994567 40.3637648,50.4270314 C40.3637648,49.054606 40.2173913,46.0760846 40.2173913,46.0760846 C40.2173913,45.373515 40.3930395,44.9326564 40.7243058,44.5992864 L41.6672593,43.6443525 C41.9492208,43.3608321 42.5485818,43.162991 42.8474919,43.162991 C43.1448612,43.162991 46.753353,43.29852 47.4158856,43.162991 C48.079959,43.0290199 50.7917206,43.162991 51.292472,43.162991 C51.7870603,43.162991 52.2708633,43.1427396 52.8332456,43.711338 C53.3971688,44.2799365 54.2199419,45.1055727 54.2199419,45.6741712 C54.2199419,46.2427696 54.0381306,53.50681 54.2199419,54.8122498 C54.4017532,56.1176896 54.2199419,60.7038648 54.2199419,61.5419634 C54.2199419,62.3785041 54.4402725,63.5780133 53.8147184,64.6264154 C53.1876236,65.6732597 53.068984,65.7418031 51.9349746,66.394523 C50.7963429,67.0456851 48.6408006,67.9834832 47.7132549,68.8137927 C46.78725,69.6425445 44.0708661,70.377828 44.0708661,71.8515107 C44.0708661,73.3236355 44.3004414,77.4081978 44.0708661,79.0485654 C43.8428316,80.6889331 44.0708661,81.8931157 44.0708661,82.3947286 C44.0708661,82.8978993 44.160231,83.393281 45.0507981,82.8636276 C45.942906,82.3339742 48.5221611,80.8042106 49.0984104,80.4614937 C49.6746597,80.1203346 50.4943513,79.9848057 50.4943513,78.5469525 L50.4943513,76.4376858 C50.4943513,74.6960609 51.6206568,74.4343498 52.3848805,74.4343498 Z M75.9971522,44.5928356 C75.9971522,45.6956292 75.7950924,50.6828435 75.9971522,52.6681799 C76.199212,54.6535163 75.9971522,60.1258982 75.9971522,61.4058164 L75.9971522,64.3630281 C75.9971522,65.0684464 75.7059951,65.7969678 75.195277,66.6302238 C74.6845589,67.4634798 73.9081402,68.7310763 73.3862849,69.576654 C72.8676117,70.4237719 72.603502,71.1368912 71.6011581,71.6975293 C70.5972232,72.2581673 70.2646996,72.4445333 69.5153281,72.8634716 C68.7643657,73.2824099 68.5225304,73.4441325 67.8686203,73.1253081 C67.2131192,72.8064837 66.8169547,72.2227424 66.3269199,73.0144126 C65.833703,73.8045426 65.6443714,74.1095051 65.2911645,74.6809247 C64.9347755,75.250804 64.5608853,75.6682021 63.315115,76.3921029 C62.0725268,77.1160037 61.0606367,77.3300935 60.1060235,78.260383 C59.1498192,79.1891323 58.9668517,78.9242154 58.0965626,79.430946 C57.2246825,79.9376765 56.9605728,79.8514245 56.9605728,78.9688816 C56.9605728,78.087879 57.1435403,66.1712399 57.1435403,64.4939464 C57.1435403,62.8181931 56.9605728,62.465484 56.9605728,62.0234424 C56.9605728,61.5829411 57.3312809,61.3180242 57.1435403,60.8759827 C56.9605728,60.4354813 56.9605728,58.6703956 56.9605728,57.6538541 C56.9605728,56.640393 56.7760142,51.1680111 56.9605728,50.240802 C57.1435403,49.3135929 56.9605728,48.4418315 56.9605728,48.0352149 C56.9605728,47.195798 57.0305778,46.9555246 56.2334757,46.9555246 C55.4347826,46.9555246 55.4347826,46.0483383 55.4347826,45.1673356 C55.4347826,44.2832525 55.4586479,43.1034483 56.5994108,43.1034483 C57.7369916,43.1034483 59.0591309,43.2128035 59.6541732,43.2128035 C60.2460334,43.2128035 62.7312099,42.8277499 62.7312099,44.4603772 C62.7312099,46.0930045 62.8330354,46.9555246 61.8863772,46.9555246 C60.9397191,46.9555246 60.9397191,47.4160487 60.9397191,48.0352149 C60.9397191,48.6528409 60.8824423,54.0358903 60.7456144,55.5807254 C60.6087865,57.1255605 60.9397191,60.5525376 60.9397191,61.596803 L60.9397191,69.7014114 C60.9397191,70.9382036 60.794936,73.3409381 61.5220331,72.9250802 C62.2491302,72.5107625 64.5179277,71.6436218 64.5179277,70.1881191 C64.5179277,68.7310763 64.3015487,65.1131126 64.2554091,64.1412373 C64.2108605,63.1709022 64.7804464,59.0662307 64.5179277,58.228354 C64.2554091,57.3904774 64.6658928,56.7512884 65.2132044,56.7512884 L67.6283759,56.7512884 C68.1756875,56.7512884 68.497074,57.4782696 68.497074,58.228354 C68.497074,58.9784385 68.2266003,63.2586944 68.497074,64.9359879 C68.7691388,66.6117412 68.279104,69.1053484 68.9696076,68.7202948 C69.6632932,68.333701 70.8947443,67.6436849 71.2654525,67.4372962 C71.6393426,67.227827 72.0180059,66.2159061 72.0180059,65.3333632 C72.0180059,64.4508204 71.8016269,60.4354813 72.0180059,59.0662307 L72.2327939,57.6985203 C72.2327939,57.6985203 72.0180059,53.0655553 72.0180059,51.5207202 L72.0180059,48.1676733 C72.0180059,47.3282565 71.9161805,46.9555246 71.4579661,46.9555246 C71.0013428,46.9555246 70.4906247,47.0202136 70.4906247,46.0052123 C70.4906247,44.990211 70.6831384,44.4049295 70.727687,43.754959 C70.7754176,43.1034483 71.0936221,43.1034483 71.4118265,43.1034483 L74.7402447,43.1034483 C75.3782446,43.1034483 75.9971522,43.4900421 75.9971522,44.5928356 Z M96.6525503,51.0644822 C96.6525503,51.9654189 96.4151377,56.4374827 96.5330473,57.7733544 C96.6525503,59.1092262 96.8549086,60.8971197 96.6541436,61.8990235 C96.4533787,62.899374 96.6525503,66.2375001 96.6525503,66.7718488 C96.6525503,67.3061975 96.467719,67.615312 95.937126,67.9104465 C95.4081262,68.2086876 94.5014972,68.9573971 93.1009227,69.5010659 C91.6939747,70.0416279 89.4839669,71.5204069 88.9310666,71.8310747 C88.381353,72.1401893 88.0053171,72.33125 87.5671396,72.0873757 C87.1273688,71.8403948 84.4616564,70.6753903 83.6442563,69.8925074 C82.8252627,69.108071 82.1990673,69.4265056 81.9313807,68.9325437 C81.6621007,68.4401351 80.7012971,68.2459677 80.0448275,67.8793797 C79.388358,67.5112383 79.3485237,66.9380561 79.3485237,66.0371193 C79.3485237,65.1361825 79.5875296,59.8579357 79.4903339,58.8234118 C79.388358,57.7888878 79.388358,58.0405288 79.388358,57.1737655 C79.388358,56.5726232 79.5397284,56.0398278 80.0878486,56.0398278 C80.6343754,56.0398278 81.0135981,56.2075885 81.6270465,56.0398278 C82.2436817,55.8705138 83.065862,56.0398278 83.3733829,56.0398278 C83.6824972,56.0398278 83.3733829,56.9733847 83.3733829,58.0079087 L83.3733829,62.8325804 C83.3733829,64.1016586 83.3845365,65.252683 83.92947,65.5586908 C84.47281,65.8646986 84.6640147,66.4378808 85.2583427,66.5372945 C85.8542641,66.6382616 86.2318934,66.8510691 86.7656732,67.1508636 C87.299453,67.4491047 87.9224617,67.9259798 88.4673952,67.6168653 C89.0155153,67.3093042 91.2573906,65.8196518 91.7003482,65.7963517 C92.1385257,65.769945 92.6675254,65.5027706 92.6675254,64.7695945 C92.6675254,64.034865 92.8953776,58.4941038 92.8953776,55.9637142 C92.8953776,53.4348779 92.6675254,53.1009099 92.6675254,52.5339411 C92.6675254,51.9654189 93.2299859,51.6920312 92.8953776,51.3642766 C92.5575826,51.0380754 92.6675254,50.4975133 92.6675254,50.0625783 L92.6675254,47.0925937 C92.6675254,46.4588312 92.3106099,46.1605901 91.8310047,46.1605901 C91.3513996,46.1605901 87.6882359,46.4246578 87.243685,46.3920377 C86.7975407,46.3578642 84.4361625,46.1605901 83.8880423,46.1605901 C83.3415155,46.1605901 82.7918019,46.3252441 82.4826876,46.3578642 C82.1751667,46.3920377 81.0598059,46.1605901 80.2232853,46.1605901 C79.388358,46.1605901 79.388358,46.0580697 79.388358,44.823165 C79.388358,43.5882603 79.6895054,39.6816121 79.5397284,38.7138817 C79.388358,37.7461513 79.388358,36.3108659 79.388358,35.5435163 C79.388358,34.7761667 79.1620991,32.6403252 79.7787343,32.6403252 C80.3953695,32.6403252 80.5658604,32.3980043 80.9450831,32.3980043 C81.3195256,32.3980043 87.1066549,32.5564449 88.475362,32.3980043 C89.8472558,32.2395636 92.8953776,32.3980043 93.4403111,32.3980043 L95.8717977,32.3980043 C96.3529962,32.3980043 96.6525503,32.7739124 96.6525503,33.3067077 L96.6525503,37.8471184 C96.6525503,38.6812616 96.7274388,39.3600708 95.8717977,39.3600708 C95.0161566,39.3600708 94.4680364,39.2062902 93.9884313,39.3600708 C93.5088261,39.5154048 92.6675254,39.2482304 92.6675254,38.7806753 L92.6675254,36.8452146 C92.6675254,35.64293 92.2771491,36.2829057 91.7975439,36.2829057 L88.5805246,36.2829057 C87.825266,36.2829057 86.3529897,36.4102796 85.7028937,36.444453 C85.0527977,36.4786265 83.3733829,35.9442778 83.3733829,36.9120081 C83.3733829,37.8797385 83.2363529,39.9829599 83.3733829,40.5499287 C83.5120063,41.1184509 83.0993228,42.2741353 83.8195273,42.2741353 C84.5381383,42.2741353 88.543877,42.4978161 89.0919972,42.3859757 C89.6401174,42.2741353 91.8310047,42.2741353 92.4460466,42.2741353 C93.0642751,42.2741353 94.6719881,42.286562 94.979509,42.5863565 C95.2902167,42.8877043 95.6837797,43.2713791 96.0773427,43.6550539 C96.4709058,44.0387287 96.6541436,44.4224035 96.6541436,45.2239265 C96.6541436,46.0238963 96.4151377,48.4284654 96.5330473,48.8618471 C96.6525503,49.2952287 96.6525503,50.1635454 96.6525503,51.0644822 Z M98.974189,45.0708499 C98.8117699,44.2612971 98.9445163,43.1034483 99.7191308,43.1034483 C100.490622,43.1034483 103.64374,43.3168188 104.415231,43.2838719 C105.188284,43.249356 107.166987,43.1034483 107.771374,43.1034483 C108.377322,43.1034483 110.288871,43.3168188 110.8589,43.2838719 C111.432052,43.249356 113.744963,43.1034483 114.282196,43.1034483 C114.819429,43.1034483 115.152076,43.249356 115.152076,43.8565207 C115.152076,44.4636853 114.981848,45.5085732 115.152076,46.1832005 C115.322303,46.8578278 115.153637,48.3043544 114.717917,48.3043544 L111.866211,48.3043544 C111.244645,48.3043544 111.244645,48.0031254 111.244645,47.6328648 C111.244645,47.2610354 111.229028,47.028838 110.724591,47.028838 C110.221717,47.028838 109.815669,46.8625346 109.417429,47.028838 C109.016067,47.1951415 109.016067,47.7677903 109.016067,48.1725667 C109.016067,48.5757742 108.817728,49.5077013 109.016067,53.8457119 C109.217529,58.1852915 108.850524,63.5117097 109.016067,64.186337 C109.181609,64.8593954 109.016067,68.5698458 109.016067,69.3778297 C109.016067,70.1873825 109.005135,70.606279 109.414306,70.843183 C109.818792,71.0785181 110.593407,71.3624892 110.980714,71.7515766 C111.369583,72.1390951 111.789686,72.3163809 111.789686,72.9706125 L111.789686,75.71462 C111.789686,76.2888376 111.70223,76.6763561 111.288373,76.4363143 C110.872955,76.1978414 109.718842,75.2768966 108.744327,74.7371948 C107.771374,74.1974929 105.286673,72.9863015 104.452713,72.5062179 C103.620314,72.0277031 102.822274,71.571153 102.314714,71.2777685 C101.805592,70.985953 101.869623,70.4572334 101.766549,69.8500688 C101.665037,69.2429042 101.805592,68.1650694 101.805592,67.490442 C101.805592,66.8142458 102.030481,66.574204 102.478695,66.8330726 C102.925348,67.0919412 103.913918,67.6630211 104.235633,67.8497203 C104.555786,68.0348506 105.110198,68.0630908 105.110198,67.3539477 C105.110198,66.6463734 105.300728,59.8702909 105.110198,58.320217 C104.919668,56.7685741 104.964958,53.0267457 105.110198,51.8798793 C105.253876,50.7345817 105.110198,49.0825292 105.110198,48.4753646 C105.110198,47.8682 105.253876,47.028838 104.751002,47.028838 L103.64374,47.028838 C103.073711,47.028838 102.880058,47.0304069 102.880058,47.6658118 C102.880058,48.3043544 102.402171,48.3043544 101.999246,48.3043544 C101.597883,48.3043544 100.354752,48.4408487 99.9861854,48.4753646 C99.6160571,48.5083115 98.974189,48.3074922 98.974189,47.4979394 C98.974189,46.6883866 99.1366082,45.8804027 98.974189,45.0708499 Z M113.096051,75.9015223 C113.096051,75.182306 112.827336,73.005854 113.84628,73.5965829 C114.86833,74.1873117 115.59992,74.8109459 115.811164,73.6702281 C116.022408,72.5279434 117.117463,65.2386314 117.737216,63.2517767 C118.360077,61.2649221 118.954979,54.9047937 119.293591,53.956807 C119.632204,53.0088204 120.11527,50.1256875 120.345154,49.1494963 C121.028592,46.2710642 120.36224,47.1485394 119.871407,47.1485394 L117.782261,47.1485394 C117.157847,47.1485394 116.63129,47.1673425 116.63129,46.6737627 C116.63129,46.1801828 116.817682,45.236897 116.63129,44.7433172 C116.444897,44.2497373 116.409172,43.2281055 117.205999,43.2281055 C118.002825,43.2281055 122.09724,43.4647104 123.210933,43.2281055 C124.323073,42.9930675 126.14661,43.5085842 127.34884,43.2281055 C128.549516,42.9476268 130.90893,43.373829 131.976025,43.2281055 C133.046227,43.0823819 132.741787,43.8000313 132.741787,44.5646883 C132.741787,45.3277783 133.266791,47.1485394 132.154651,47.1485394 C131.042511,47.1485394 129.484583,47.0999649 129.613505,48.1451006 C129.743979,49.1886693 130.304709,55.7963712 130.829713,57.9023117 C131.354718,60.0082522 131.606348,64.1339527 131.78342,65.5645507 C131.962046,66.9951487 131.985345,68.9632003 132.292892,69.6495113 C132.601992,70.3326884 132.507243,71.360588 132.606652,72.1738195 C132.709168,72.9839171 133.182915,76.769596 133.419011,78.6875061 C133.658215,80.6054162 134.195645,84.8219981 134.265543,85.4785376 C134.33544,86.136644 134.935001,85.8687007 135.4336,86.1617147 C135.935306,86.4531619 137.872231,87.5844781 138.162692,87.7521386 C138.453153,87.9229329 138.69857,87.9777751 138.453153,86.9451747 C138.207737,85.9110075 138.454707,81.5565367 138.555669,80.0319235 C138.651972,78.5041765 138.453153,76.0911196 138.453153,74.6495532 C138.453153,73.2064198 138.709443,62.7911022 138.580521,60.9045305 C138.453153,59.0195257 138.252782,54.3062302 138.453153,52.2849033 C138.651972,50.2651434 138.453153,48.6245781 138.453153,47.8865588 C138.453153,47.1485394 137.806994,47.1485394 136.826882,47.1485394 L135.225462,47.1485394 C134.781228,47.1485394 134.503193,46.5844482 134.503193,45.9106726 C134.503193,45.236897 134.315247,44.5521529 134.503193,43.8909127 C134.691138,43.2281055 135.04839,43.2281055 135.584267,43.2281055 C136.115485,43.2281055 138.919134,43.5085842 140.610643,43.2281055 C142.302152,42.9476268 145.28598,43.2281055 147.241544,43.2281055 L151.780194,43.2281055 C152.58168,43.2281055 152.83331,43.1434918 153.434424,43.7498898 C154.033986,44.354721 154.861878,45.236897 154.861878,46.0454277 L154.861878,49.8624449 C154.861878,51.1645555 155.136806,53.9912793 154.861878,55.2495161 C154.585396,56.5061859 154.861878,58.1671212 154.861878,59.0195257 L154.861878,65.7980218 C154.861878,67.0123848 154.934881,68.6921231 154.636654,69.2593482 C154.338426,69.8265732 154.360172,70.2402401 153.364527,70.8419374 C152.368882,71.4420678 151.294021,71.9372146 150.424191,72.6172579 C149.557467,73.2973012 150.189647,73.9397384 150.324782,74.6495532 C150.459916,75.3593679 151.242763,79.4521631 151.733596,82.0344473 C152.225982,84.6151646 153.015042,87.2460234 152.997956,88.665653 C152.982423,90.0868494 153.813422,92.9323762 153.954769,93.6719625 C154.094563,94.4084149 154.481327,95.4629521 154.481327,96.4187733 C154.481327,97.3777284 155.097975,97.6331364 155.494058,97.8634736 C155.891695,98.0953778 156.38874,98.482407 156.38874,99.424126 C156.38874,100.367412 157.168481,103.338292 154.951967,102.053418 C152.735454,100.77011 151.982119,99.9224066 150.458363,99.4491967 C148.933053,98.9759869 147.761889,98.2943766 147.761889,96.1429954 C147.761889,93.9931811 147.911003,93.4384914 148.504351,93.7847808 C149.0977,94.1310701 150.197414,94.7170982 150.023448,93.8082846 C149.851035,92.9010378 149.010717,88.4995594 148.726469,87.0125523 C148.443774,85.5239783 147.605009,82.549964 147.468322,80.4158189 C147.330081,78.27854 146.923124,77.5640244 146.738286,76.5909671 C146.551893,75.6179097 146.376374,74.8892919 145.950779,75.318628 C145.52829,75.7448303 144.211118,76.3684644 143.482636,76.808769 C142.755706,77.2475066 142.337877,77.3822617 142.337877,78.9977563 L142.337877,86.5409094 C142.337877,88.6499838 142.250894,89.4741837 142.65785,90.0414088 C143.067913,90.6086338 143.463996,90.840538 143.84144,91.0614737 C144.218885,91.2808425 144.709717,91.3388186 144.709717,92.800755 C144.709717,94.2626914 144.675545,96.0646494 143.662815,95.4754875 C142.646977,94.8863255 140.180388,93.0561629 138.68459,92.5813862 C137.184133,92.1081763 134.795207,89.8173392 133.229513,89.4130738 C131.665372,89.0088085 130.661961,87.5531397 129.739319,87.3839124 C128.818231,87.2131181 128.428361,86.8997341 128.428361,86.0912033 L128.428361,82.9495286 C128.428361,82.0861557 128.593007,82.1817378 129.111799,82.4857203 C129.632144,82.7897028 130.053079,83.0905514 129.888433,81.7821732 C129.726893,80.472228 129.439538,76.0566474 128.951812,74.2499885 C128.464086,72.4433297 128.363124,69.2358444 128.144113,67.7864433 C127.928209,66.3370423 127.788414,66.9356058 127.086337,67.3320365 C126.38426,67.7300342 124.650813,69.0525147 123.106864,69.5805668 C121.562916,70.1086189 121.264688,70.6225686 120.741237,70.9171496 C120.217786,71.2132975 120.150995,71.5768229 119.983242,72.4919042 C119.812383,73.4085525 119.523475,74.9754725 119.391447,75.6852873 C119.260973,76.396669 119.054388,76.6238724 119.63065,76.9607602 C120.206913,77.2945142 120.58591,77.3023488 121.087616,77.808464 C121.587768,78.3130122 121.722902,79.0870707 121.722902,79.9410421 C121.722902,80.7934466 121.966766,82.5186256 120.741237,82.1268956 C119.517262,81.7367325 116.955923,79.3283764 115.27684,78.9617171 C113.597757,78.5950578 114.068397,78.0215651 113.453303,77.9040461 C112.841315,77.7865271 113.096051,76.6191716 113.096051,75.9015223 Z M44.0708661,50.0593896 C44.0708661,50.7292453 44.2372697,57.3904155 44.2372697,57.8920284 C44.2372697,58.3951991 44.0708661,64.9551121 44.0708661,65.7324563 C44.0708661,66.5113583 44.5993515,66.1888929 45.3666567,65.7324563 C46.1355027,65.2775775 48.8025819,63.6964064 49.6007026,63.2243917 C50.3972825,62.7508193 50.3649263,62.0762902 50.3649263,61.3067349 C50.3649263,60.5371797 50.1646257,56.6193025 50.1646257,55.3824061 C50.1646257,54.1439519 50.3649263,48.4860075 50.3649263,47.8161517 C50.3649263,47.146296 50.2000635,47.0606168 49.8672564,47.0606168 C49.5344493,47.0606168 47.9459117,46.8783537 47.4482419,46.8783537 C46.9521128,46.8783537 45.3296781,47.0606168 44.8689868,47.0606168 C44.4036732,47.0606168 44.0708661,47.2802672 44.0708661,48.1837935 L44.0708661,50.0593896 Z M121.249156,65.6350621 C121.042571,66.753843 121.830078,65.4846378 123.036967,65.1352146 C124.243857,64.7842245 126.374941,63.2502098 127.140702,62.816173 C127.90491,62.383703 127.039739,61.579873 127.25875,60.678894 C127.482421,59.777915 126.926351,58.0072953 126.705787,56.2335419 C126.485223,54.4597884 125.814211,49.0899534 125.697716,48.1498013 C125.58122,47.2112162 125.390169,47.1485394 124.989425,47.1485394 C124.588682,47.1485394 124.450441,48.3049264 124.232984,49.5020533 C124.034165,50.6035981 123.655168,53.9019648 123.077352,55.7540643 C122.497983,57.6061638 121.45574,64.5194151 121.249156,65.6350621 Z M142.337877,48.1106283 C142.337877,48.8737184 141.991498,51.2538699 142.202743,52.330344 C142.417094,53.408385 142.337877,57.9884923 142.337877,59.6933013 C142.337877,61.3996772 142.03499,65.440764 142.337877,66.9215035 C142.640764,68.4038098 142.337877,70.6476394 142.337877,71.6802397 C142.337877,72.71284 142.998016,72.3837868 143.611557,72.0296628 C143.611557,72.0296628 145.683616,71.2305336 146.379481,70.4376721 C147.073791,69.6448105 149.08838,68.8785866 150.032767,68.3364323 C150.977154,67.792711 150.975601,67.3257689 150.975601,66.6519932 C150.975601,65.9797845 151.24587,62.7911022 150.975601,61.9825715 C150.705332,61.1740408 151.202378,58.0323661 150.975601,56.7756962 C150.748824,55.5174594 150.975601,48.4255793 150.975601,47.706363 C150.975601,46.9887136 149.64445,47.1485394 148.530757,47.1485394 L143.282264,47.1485394 C142.968504,47.1485394 142.337877,47.3475383 142.337877,48.1106283 Z M107.497134,97.9880133 L107.497134,102.37069 L104.347826,102.37069 L104.347826,89.4748022 C105.116786,89.4748022 107.497134,89.4396552 108.559964,89.4396552 C112.754143,89.4396552 114.130435,91.4842929 114.130435,93.7123061 C114.130435,96.0151978 112.223544,98.0414979 109.031789,98.0414979 C108.737919,98.0414979 107.990183,98.0414979 107.497134,97.9880133 Z M78.4976619,89.4396552 L81.2849468,89.4396552 L86.9565217,102.37069 L83.6227739,102.37069 L82.4910457,99.6566742 L77.0927022,99.6566742 L75.9625908,102.37069 L72.826087,102.37069 L78.4976619,89.4396552 Z M67.8481565,100.546731 C68.762164,100.546731 69.7686333,100.236997 70.6250417,99.5581514 L71.7391304,101.881955 C70.9751839,102.788688 69.3093559,103.448276 67.5738027,103.448276 C63.6070404,103.448276 60.8695652,100.662279 60.8695652,96.4447679 C60.8695652,92.5562483 63.1507946,89.4396552 67.5556135,89.4396552 C69.2547883,89.4396552 70.6993143,90.0591222 71.4662924,90.8535164 L70.16728,93.1741105 C69.4730588,92.7311755 68.762164,92.342805 67.5556135,92.342805 C65.5820848,92.342805 63.9738561,93.7743195 63.9738561,96.4447679 C63.9738561,98.8423942 65.5441907,100.546731 67.8481565,100.546731 Z M88.0434783,89.4396552 L91.1497721,89.4396552 L95.3208523,94.8906731 L99.2581599,89.4396552 L102.173913,89.4396552 L102.173913,102.37069 L99.0852322,102.37069 L99.0852322,94.1336299 L95.3208523,99.1754767 L94.878926,99.1754767 L91.1321591,94.188799 L91.1321591,102.37069 L88.0434783,102.37069 L88.0434783,89.4396552 Z M69.5232919,18.5500019 C67.5279503,17.8491916 65.9953416,16.6068461 65.9953416,14.6151495 C65.9953416,12.1789995 68.3074534,10.7758621 70.7810559,10.7758621 C73.1149068,10.7758621 74.7313665,11.8483141 75.568323,12.9966115 L73.5124224,14.5165506 C73.0124224,13.8931025 72.0559006,13.4653352 70.8586957,13.4653352 C69.8214286,13.4653352 69.0248447,13.9325421 69.0248447,14.5757099 C69.0248447,15.7058044 70.2810559,15.7452439 72.5341615,16.6007785 C75.0496894,17.5367091 76.0869565,18.6850064 76.0869565,20.6357467 C76.0869565,23.0324571 74.4503106,24.7844828 70.9177019,24.7844828 C67.9301242,24.7844828 66.0729814,23.4207849 65.2173913,21.7855609 L67.4487578,20.2853416 C68.1071429,21.3562767 69.3245342,22.0752898 70.9378882,22.0752898 C72.4736025,22.0752898 73.0124224,21.3759965 73.0124224,20.7313117 C73.0124224,19.5450918 71.4565217,19.252329 69.5232919,18.5500019 Z M47.826087,25.862069 L47.826087,11.8534483 L51.0869565,11.8534483 L51.0869565,25.862069 L47.826087,25.862069 Z M77.173913,25.862069 L77.173913,11.8534483 L80.4347826,11.8534483 L80.4347826,25.862069 L77.173913,25.862069 Z M91.3043478,23.0485114 L91.3043478,25.862069 L82.6086957,25.862069 L82.6086957,11.8534483 L85.8742902,11.8534483 L85.8742902,23.0485114 L91.3043478,23.0485114 Z M97.2561412,25.862069 L94.2360658,25.862069 L89.1304348,11.8534483 L92.4991642,11.8534483 L95.7437155,21.108449 L98.8035916,11.8534483 L102.173913,11.8534483 L97.2561412,25.862069 Z M111.929761,23.0485114 L111.929761,25.862069 L103.26087,25.862069 L103.26087,11.8534483 L111.956522,11.8534483 L111.956522,14.6685629 L106.388723,14.6685629 L106.388723,17.9710287 L110.887668,17.9710287 L110.887668,20.6351111 L106.388723,20.6351111 L106.388723,23.0485114 L111.929761,23.0485114 Z M116.018862,21.1992751 L116.018862,25.862069 L113.043478,25.862069 L113.043478,11.8534483 L118.409714,11.8534483 C120.939167,11.8534483 123.018169,13.8649106 123.018169,16.4757638 C123.018169,18.3066304 122.09015,20.1499519 120.414897,20.8411975 L123.913043,25.862069 L120.529392,25.862069 L117.430474,21.0638284 L117.430474,18.4654301 L118.078279,18.4654301 C119.247341,18.4654301 120.024707,17.7041258 120.024707,16.5162421 C120.024707,15.432668 119.285004,14.66825 118.331375,14.66825 L116.018862,14.66825 L116.018862,18.4654301 L116.018862,21.1992751 Z M39.6840682,25.862069 C36.3969231,25.862069 33.6956522,23.9659464 33.6956522,20.0648698 L33.6956522,11.8534483 L36.8000045,11.8534483 L36.8000045,19.431807 C36.8000045,21.8460293 37.9530051,22.7764629 39.6840682,22.7764629 C41.399508,22.7764629 42.5478215,21.8460293 42.5478215,19.431807 L42.5478215,11.8534483 L45.6521739,11.8534483 L45.6521739,20.0648698 C45.6521739,23.9659464 42.950903,25.862069 39.6840682,25.862069 Z M24.9337689,24.7844828 C20.7596305,24.7844828 17.3913043,21.7180692 17.3913043,17.7794179 C17.3913043,13.8603844 20.7596305,10.7758621 24.9337689,10.7758621 C29.1299842,10.7758621 32.4762334,13.8603844 32.4762334,17.7794179 C32.4762334,19.5269114 31.8170759,21.0978448 30.7195314,22.3096214 L32.6086957,24.5656688 L28.7215589,24.5656688 L24.2651498,19.2522622 L26.6084704,17.3961162 L28.7515206,19.9585031 C29.134715,19.321679 29.3539085,18.5777116 29.3539085,17.7794179 C29.3539085,15.4313177 27.4284749,13.4921733 24.9337689,13.4921733 C22.4406398,13.4921733 20.5136292,15.414718 20.5136292,17.7794179 C20.5136292,20.1773171 22.3980626,22.0228997 24.8486146,22.0651534 L26.871818,24.5566144 C26.2536607,24.7045025 25.6055418,24.7844828 24.9337689,24.7844828 Z M56.4047147,25.862069 L56.240248,25.862069 L53.2608696,25.862069 L53.2608696,11.8534483 L56.240248,11.8534483 L56.4047147,11.8534483 L56.4047147,18.4864064 L62.0772361,11.8534483 L65.9580188,11.8534483 L60.3171256,18.466165 L66.3043478,25.862069 L66.2885337,25.862069 L62.63073,25.862069 L62.3903555,25.862069 L58.2802682,20.818841 L56.4047147,23.0049145 L56.4047147,25.862069 Z M107.497134,92.239189 L107.497134,95.1869514 C107.951,95.2419641 108.483231,95.2771111 108.935465,95.2771111 C109.763199,95.2771111 110.785214,94.947035 110.785214,93.6939686 C110.785214,92.5524556 109.996662,92.2025139 108.876691,92.2025139 C108.46364,92.2025139 108.146913,92.2193233 107.497134,92.239189 Z M78.2632325,96.8844247 L81.3237489,96.8844247 L79.8023828,93.226404 L78.2632325,96.8844247 Z M129.771324,24.7844828 C128.890093,24.7844828 128.268794,24.0647184 128.26087,23.3727562 L128.26087,17.7690975 C129.365577,17.7690975 130.354584,17.2516703 130.714367,16.9999073 C133.001445,15.4043782 134.903382,12.2998154 137.34103,11.2896741 C138.057426,10.9931188 139.442669,10.5127611 141.190866,10.9545048 L143.282995,12.9855994 C143.282995,12.9855994 142.189382,12.4851624 140.569566,12.4851624 C138.751632,12.4851624 135.24256,13.9463149 135.24256,17.7644638 C135.24256,20.83968 137.413937,23.0005175 140.981653,23.0005175 L153.600999,23.0005175 L155.434783,24.7844828 L129.771324,24.7844828 Z M136.956522,20.8589444 C136.956522,20.8589444 142.176013,15.7719436 142.429402,15.5299189 C143.055053,14.9383029 144.168711,14.9383029 144.708335,15.5299189 L152.173913,22.6293103 L140.564963,22.6293103 C139.249532,22.6293103 137.488325,22.0287305 136.956522,20.8589444 Z M143.952862,16.3710294 C143.777679,16.2022097 143.397597,16.2022097 143.227107,16.3710294 C143.162978,16.4263067 140.636913,18.7076137 140.636913,18.7076137 C140.505526,18.831614 140.577476,18.973542 140.747966,18.9690601 L142.176013,18.9690601 L143.181747,18.1563352 C143.394468,17.9591298 143.594677,17.9949854 143.594677,18.2086244 L143.594677,19.8266044 C143.593112,20.083569 143.829296,20.083569 143.973195,19.9117613 L145.018032,18.9690601 L146.388207,18.9690601 C146.494568,18.9645782 146.574338,18.831614 146.425746,18.6956618 L143.952862,16.3710294 Z M162.643639,33.1493099 L100.668597,33.1493099 L100.668597,36.9024467 L162.643639,36.9024467 L162.643639,112.542346 L133.019795,95.3999373 L133.022937,95.3983689 L95.6852051,73.8425345 L91.966514,76.0304266 L128.042688,96.858532 L128.202936,96.9526349 L87.4984289,120.65872 L46.6509561,96.8695107 L49.503995,95.2038896 L82.4726187,76.0131744 L78.7413592,73.8425345 L47.6061585,91.9651819 L47.5574558,91.9949812 L44.567735,93.7343162 L44.5708771,93.7358846 L12.3532184,112.528231 L12.3532184,36.9024467 L74.4240955,36.9024467 L74.4240955,33.1493099 L12.3532184,33.1493099 L12.3532184,3.75156838 L162.643639,3.75156838 L162.643639,33.1493099 Z M166.404749,33.1493099 L166.404749,0 L8.59367986,0 L8.59367986,33.1493099 L0,33.1493099 L0,36.9024467 L8.59367986,36.9024467 L8.59367986,119.066813 L42.9244097,99.0432873 L87.4984289,125 L131.943622,99.1185696 L166.404749,119.052698 L166.404749,36.9024467 L175,36.9024467 L175,33.1493099 L166.404749,33.1493099 Z" id="path-1"></path>
    </defs>
    <g id="Header" stroke="none" stroke-width="1" fill="none" fill-rule="evenodd">
        <g id="Logo/NSC" transform="translate(0, 110)">
            <mask id="mask-2" fill="white">
                <use xlink:href="#path-1"></use>
            </mask>
            <use id="Mask" fill="#000000" fill-rule="evenodd" xlink:href="#path-1"></use>
            <g id="Pallette/Plum" mask="url(#mask-2)" fill="#4619D5">
                <rect x="0" y="0" width="175" height="125"></rect>
            </g>
        </g>
    </g>
</svg>