<svg width="64" height="73" viewBox="0 0 64 73" fill="none" xmlns="http://www.w3.org/2000/svg">
<path d="M62.4531 54.9219V55.9219H63.4531V54.9219H62.4531ZM52.9375 54.9219V53.9219H51.9375V54.9219H52.9375ZM52.9375 71.1875V72.1875H53.9375V71.1875H52.9375ZM35.7344 71.1875H34.7344V72.1875H35.7344V71.1875ZM35.7344 54.9219H36.7344V53.9219H35.7344V54.9219ZM1.9375 54.9219H0.9375V55.9219H1.9375V54.9219ZM1.9375 41.7031L1.15919 41.0752L0.9375 41.3501V41.7031H1.9375ZM34.6094 1.20312V0.203125H34.1313L33.8311 0.575249L34.6094 1.20312ZM52.9375 1.20312H53.9375V0.203125H52.9375V1.20312ZM52.9375 42.1719H51.9375V43.1719H52.9375V42.1719ZM62.4531 42.1719H63.4531V41.1719H62.4531V42.1719ZM35.7344 42.1719V43.1719H36.7344V42.1719H35.7344ZM35.7344 16.9531H36.7344V14.1157L34.9553 16.3261L35.7344 16.9531ZM15.4375 42.1719L14.6585 41.5449L13.349 43.1719H15.4375V42.1719ZM62.4531 53.9219H52.9375V55.9219H62.4531V53.9219ZM51.9375 54.9219V71.1875H53.9375V54.9219H51.9375ZM52.9375 70.1875H35.7344V72.1875H52.9375V70.1875ZM36.7344 71.1875V54.9219H34.7344V71.1875H36.7344ZM35.7344 53.9219H1.9375V55.9219H35.7344V53.9219ZM2.9375 54.9219V41.7031H0.9375V54.9219H2.9375ZM2.71581 42.331L35.3877 1.831L33.8311 0.575249L1.15919 41.0752L2.71581 42.331ZM34.6094 2.20312H52.9375V0.203125H34.6094V2.20312ZM51.9375 1.20312V42.1719H53.9375V1.20312H51.9375ZM52.9375 43.1719H62.4531V41.1719H52.9375V43.1719ZM61.4531 42.1719V54.9219H63.4531V42.1719H61.4531ZM36.7344 42.1719V16.9531H34.7344V42.1719H36.7344ZM34.9553 16.3261L14.6585 41.5449L16.2165 42.7989L36.5134 17.5801L34.9553 16.3261ZM15.4375 43.1719H35.7344V41.1719H15.4375V43.1719Z" fill="#C4C4C4"/>
</svg>
