<svg width="243" height="355" viewBox="0 0 243 355" fill="none" xmlns="http://www.w3.org/2000/svg">
<rect width="243" height="355" fill="#E5E5E5"/>
<rect x="0.5" y="0.5" width="242" height="354" rx="9.5" fill="#959595" stroke="#C4C4C4"/>
<mask id="mask0" mask-type="alpha" maskUnits="userSpaceOnUse" x="-60" y="79" width="188" height="227">
<path d="M127.441 233.445C127.441 254.93 118.311 272.41 100.049 285.887C81.8848 299.266 57.1777 305.955 25.9277 305.955C7.86133 305.955 -7.91016 304.393 -21.3867 301.268C-34.7656 298.045 -47.3145 293.992 -59.0332 289.109V236.814H-52.8809C-41.2598 246.092 -28.2715 253.221 -13.916 258.201C0.537109 263.182 14.4043 265.672 27.6855 265.672C31.1035 265.672 35.5957 265.379 41.1621 264.793C46.7285 264.207 51.2695 263.23 54.7852 261.863C59.082 260.105 62.5977 257.908 65.332 255.271C68.1641 252.635 69.5801 248.729 69.5801 243.553C69.5801 238.768 67.5293 234.666 63.4277 231.248C59.4238 227.732 53.5156 225.047 45.7031 223.191C37.5 221.238 28.8086 219.432 19.6289 217.771C10.5469 216.014 2.00195 213.816 -6.00586 211.18C-24.3652 205.223 -37.5977 197.166 -45.7031 187.01C-53.7109 176.756 -57.7148 164.061 -57.7148 148.924C-57.7148 128.611 -48.6328 112.059 -30.4688 99.2656C-12.207 86.375 11.2305 79.9297 39.8438 79.9297C54.1992 79.9297 68.3594 81.3457 82.3242 84.1777C96.3867 86.9121 108.545 90.3789 118.799 94.5781V144.822H112.793C104.004 137.791 93.2129 131.932 80.4199 127.244C67.7246 122.459 54.7363 120.066 41.4551 120.066C36.7676 120.066 32.0801 120.408 27.3926 121.092C22.8027 121.678 18.3594 122.85 14.0625 124.607C10.2539 126.072 6.98242 128.318 4.24805 131.346C1.51367 134.275 0.146484 137.645 0.146484 141.453C0.146484 147.215 2.34375 151.658 6.73828 154.783C11.1328 157.811 19.4336 160.594 31.6406 163.133C39.6484 164.793 47.3145 166.404 54.6387 167.967C62.0605 169.529 70.0195 171.678 78.5156 174.412C95.2148 179.881 107.52 187.352 115.43 196.824C123.438 206.199 127.441 218.406 127.441 233.445Z" fill="#C4C4C4" fill-opacity="0.2"/>
</mask>
<g mask="url(#mask0)">
<rect y="41" width="205" height="298" fill="white"/>
</g>
<path d="M38.1953 35.5156C38.1953 37.2344 37.4648 38.6328 36.0039 39.7109C34.5508 40.7812 32.5742 41.3164 30.0742 41.3164C28.6289 41.3164 27.3672 41.1914 26.2891 40.9414C25.2188 40.6836 24.2148 40.3594 23.2773 39.9688V35.7852H23.7695C24.6992 36.5273 25.7383 37.0977 26.8867 37.4961C28.043 37.8945 29.1523 38.0938 30.2148 38.0938C30.4883 38.0938 30.8477 38.0703 31.293 38.0234C31.7383 37.9766 32.1016 37.8984 32.3828 37.7891C32.7266 37.6484 33.0078 37.4727 33.2266 37.2617C33.4531 37.0508 33.5664 36.7383 33.5664 36.3242C33.5664 35.9414 33.4023 35.6133 33.0742 35.3398C32.7539 35.0586 32.2812 34.8438 31.6562 34.6953C31 34.5391 30.3047 34.3945 29.5703 34.2617C28.8438 34.1211 28.1602 33.9453 27.5195 33.7344C26.0508 33.2578 24.9922 32.6133 24.3438 31.8008C23.7031 30.9805 23.3828 29.9648 23.3828 28.7539C23.3828 27.1289 24.1094 25.8047 25.5625 24.7812C27.0234 23.75 28.8984 23.2344 31.1875 23.2344C32.3359 23.2344 33.4688 23.3477 34.5859 23.5742C35.7109 23.793 36.6836 24.0703 37.5039 24.4062V28.4258H37.0234C36.3203 27.8633 35.457 27.3945 34.4336 27.0195C33.418 26.6367 32.3789 26.4453 31.3164 26.4453C30.9414 26.4453 30.5664 26.4727 30.1914 26.5273C29.8242 26.5742 29.4688 26.668 29.125 26.8086C28.8203 26.9258 28.5586 27.1055 28.3398 27.3477C28.1211 27.582 28.0117 27.8516 28.0117 28.1562C28.0117 28.6172 28.1875 28.9727 28.5391 29.2227C28.8906 29.4648 29.5547 29.6875 30.5312 29.8906C31.1719 30.0234 31.7852 30.1523 32.3711 30.2773C32.9648 30.4023 33.6016 30.5742 34.2812 30.793C35.6172 31.2305 36.6016 31.8281 37.2344 32.5859C37.875 33.3359 38.1953 34.3125 38.1953 35.5156ZM54.9414 26.9258H49.4922V41H44.9922V26.9258H39.543V23.5508H54.9414V26.9258ZM73.7734 41H69.1211L67.9141 37.4727H61.4453L60.2383 41H55.7031L62.1484 23.5508H67.3281L73.7734 41ZM66.8242 34.2734L64.6797 28.0156L62.5352 34.2734H66.8242ZM92.1484 41H87.8125L80.4062 29.0234V41H76.2812V23.5508H81.6602L88.0234 33.5469V23.5508H92.1484V41ZM113.09 32.293C113.09 33.918 112.719 35.375 111.977 36.6641C111.234 37.9453 110.297 38.9297 109.164 39.6172C108.312 40.1328 107.379 40.4922 106.363 40.6953C105.348 40.8984 104.145 41 102.754 41H96.6016V23.5508H102.93C104.352 23.5508 105.578 23.6719 106.609 23.9141C107.641 24.1484 108.508 24.4844 109.211 24.9219C110.414 25.6562 111.359 26.6484 112.047 27.8984C112.742 29.1406 113.09 30.6055 113.09 32.293ZM108.438 32.2578C108.438 31.1094 108.227 30.1289 107.805 29.3164C107.391 28.4961 106.73 27.8555 105.824 27.3945C105.363 27.168 104.891 27.0156 104.406 26.9375C103.93 26.8516 103.207 26.8086 102.238 26.8086H101.102V37.7305H102.238C103.309 37.7305 104.094 37.6836 104.594 37.5898C105.094 37.4883 105.582 37.3086 106.059 37.0508C106.879 36.582 107.48 35.957 107.863 35.1758C108.246 34.3867 108.438 33.4141 108.438 32.2578ZM132.648 41H127.996L126.789 37.4727H120.32L119.113 41H114.578L121.023 23.5508H126.203L132.648 41ZM125.699 34.2734L123.555 28.0156L121.41 34.2734H125.699ZM144.941 28.8945C144.941 28.457 144.852 28.082 144.672 27.7695C144.492 27.457 144.184 27.2109 143.746 27.0312C143.441 26.9062 143.086 26.832 142.68 26.8086C142.273 26.7773 141.801 26.7617 141.262 26.7617H139.633V31.4609H141.016C141.734 31.4609 142.336 31.4258 142.82 31.3555C143.305 31.2852 143.711 31.125 144.039 30.875C144.352 30.6328 144.578 30.3672 144.719 30.0781C144.867 29.7812 144.941 29.3867 144.941 28.8945ZM151.961 41H146.465L141.707 34.6016H139.633V41H135.156V23.5508H142.703C143.734 23.5508 144.621 23.6094 145.363 23.7266C146.105 23.8438 146.801 24.0977 147.449 24.4883C148.105 24.8789 148.625 25.3867 149.008 26.0117C149.398 26.6289 149.594 27.4062 149.594 28.3438C149.594 29.6328 149.293 30.6836 148.691 31.4961C148.098 32.3086 147.246 32.9844 146.137 33.5234L151.961 41ZM170.418 32.293C170.418 33.918 170.047 35.375 169.305 36.6641C168.562 37.9453 167.625 38.9297 166.492 39.6172C165.641 40.1328 164.707 40.4922 163.691 40.6953C162.676 40.8984 161.473 41 160.082 41H153.93V23.5508H160.258C161.68 23.5508 162.906 23.6719 163.938 23.9141C164.969 24.1484 165.836 24.4844 166.539 24.9219C167.742 25.6562 168.688 26.6484 169.375 27.8984C170.07 29.1406 170.418 30.6055 170.418 32.293ZM165.766 32.2578C165.766 31.1094 165.555 30.1289 165.133 29.3164C164.719 28.4961 164.059 27.8555 163.152 27.3945C162.691 27.168 162.219 27.0156 161.734 26.9375C161.258 26.8516 160.535 26.8086 159.566 26.8086H158.43V37.7305H159.566C160.637 37.7305 161.422 37.6836 161.922 37.5898C162.422 37.4883 162.91 37.3086 163.387 37.0508C164.207 36.582 164.809 35.957 165.191 35.1758C165.574 34.3867 165.766 33.4141 165.766 32.2578ZM37.8789 55.9258H32.4297V70H27.9297V55.9258H22.4805V52.5508H37.8789V55.9258ZM57.5547 61.2812C57.5547 64.0625 56.7578 66.2734 55.1641 67.9141C53.5703 69.5469 51.3672 70.3633 48.5547 70.3633C45.75 70.3633 43.5508 69.5469 41.957 67.9141C40.3633 66.2734 39.5664 64.0625 39.5664 61.2812C39.5664 58.4766 40.3633 56.2617 41.957 54.6367C43.5508 53.0039 45.75 52.1875 48.5547 52.1875C51.3516 52.1875 53.5508 53.0039 55.1523 54.6367C56.7539 56.2617 57.5547 58.4766 57.5547 61.2812ZM51.5898 65.6992C52.0273 65.168 52.3516 64.543 52.5625 63.8242C52.7734 63.0977 52.8789 62.2461 52.8789 61.2695C52.8789 60.2227 52.7578 59.332 52.5156 58.5977C52.2734 57.8633 51.957 57.2695 51.5664 56.8164C51.168 56.3477 50.707 56.0078 50.1836 55.7969C49.668 55.5859 49.1289 55.4805 48.5664 55.4805C47.9961 55.4805 47.457 55.582 46.9492 55.7852C46.4492 55.9883 45.9883 56.3242 45.5664 56.793C45.1758 57.2305 44.8555 57.8359 44.6055 58.6094C44.3633 59.375 44.2422 60.2656 44.2422 61.2812C44.2422 62.3203 44.3594 63.207 44.5938 63.9414C44.8359 64.668 45.1523 65.2617 45.543 65.7227C45.9336 66.1836 46.3906 66.5234 46.9141 66.7422C47.4375 66.9609 47.9883 67.0703 48.5664 67.0703C49.1445 67.0703 49.6953 66.9609 50.2188 66.7422C50.7422 66.5156 51.1992 66.168 51.5898 65.6992ZM76.2812 63.6836C76.2812 65.8398 75.625 67.4922 74.3125 68.6406C73 69.7891 71.0664 70.3633 68.5117 70.3633C65.957 70.3633 64.0234 69.7891 62.7109 68.6406C61.4062 67.4922 60.7539 65.8438 60.7539 63.6953V52.5508H65.2773V63.4375C65.2773 64.6484 65.5312 65.5508 66.0391 66.1445C66.5469 66.7383 67.3711 67.0352 68.5117 67.0352C69.6367 67.0352 70.457 66.75 70.9727 66.1797C71.4961 65.6094 71.7578 64.6953 71.7578 63.4375V52.5508H76.2812V63.6836ZM90.2852 57.8945C90.2852 57.457 90.1953 57.082 90.0156 56.7695C89.8359 56.457 89.5273 56.2109 89.0898 56.0312C88.7852 55.9062 88.4297 55.832 88.0234 55.8086C87.6172 55.7773 87.1445 55.7617 86.6055 55.7617H84.9766V60.4609H86.3594C87.0781 60.4609 87.6797 60.4258 88.1641 60.3555C88.6484 60.2852 89.0547 60.125 89.3828 59.875C89.6953 59.6328 89.9219 59.3672 90.0625 59.0781C90.2109 58.7812 90.2852 58.3867 90.2852 57.8945ZM97.3047 70H91.8086L87.0508 63.6016H84.9766V70H80.5V52.5508H88.0469C89.0781 52.5508 89.9648 52.6094 90.707 52.7266C91.4492 52.8438 92.1445 53.0977 92.793 53.4883C93.4492 53.8789 93.9688 54.3867 94.3516 55.0117C94.7422 55.6289 94.9375 56.4062 94.9375 57.3438C94.9375 58.6328 94.6367 59.6836 94.0352 60.4961C93.4414 61.3086 92.5898 61.9844 91.4805 62.5234L97.3047 70Z" fill="white"/>
</svg>
