<svg width="432" height="243" viewBox="0 0 432 243" fill="none" xmlns="http://www.w3.org/2000/svg">
<mask id="mask0" mask-type="alpha" maskUnits="userSpaceOnUse" x="-59" y="26" width="188" height="227">
<path d="M128.441 180.445C128.441 201.93 119.311 219.41 101.049 232.887C82.8848 246.266 58.1777 252.955 26.9277 252.955C8.86133 252.955 -6.91016 251.393 -20.3867 248.268C-33.7656 245.045 -46.3145 240.992 -58.0332 236.109V183.814H-51.8809C-40.2598 193.092 -27.2715 200.221 -12.916 205.201C1.53711 210.182 15.4043 212.672 28.6855 212.672C32.1035 212.672 36.5957 212.379 42.1621 211.793C47.7285 211.207 52.2695 210.23 55.7852 208.863C60.082 207.105 63.5977 204.908 66.332 202.271C69.1641 199.635 70.5801 195.729 70.5801 190.553C70.5801 185.768 68.5293 181.666 64.4277 178.248C60.4238 174.732 54.5156 172.047 46.7031 170.191C38.5 168.238 29.8086 166.432 20.6289 164.771C11.5469 163.014 3.00195 160.816 -5.00586 158.18C-23.3652 152.223 -36.5977 144.166 -44.7031 134.01C-52.7109 123.756 -56.7148 111.061 -56.7148 95.9238C-56.7148 75.6113 -47.6328 59.0586 -29.4688 46.2656C-11.207 33.375 12.2305 26.9297 40.8438 26.9297C55.1992 26.9297 69.3594 28.3457 83.3242 31.1777C97.3867 33.9121 109.545 37.3789 119.799 41.5781V91.8223H113.793C105.004 84.791 94.2129 78.9316 81.4199 74.2441C68.7246 69.459 55.7363 67.0664 42.4551 67.0664C37.7676 67.0664 33.0801 67.4082 28.3926 68.0918C23.8027 68.6777 19.3594 69.8496 15.0625 71.6074C11.2539 73.0723 7.98242 75.3184 5.24805 78.3457C2.51367 81.2754 1.14648 84.6445 1.14648 88.4531C1.14648 94.2148 3.34375 98.6582 7.73828 101.783C12.1328 104.811 20.4336 107.594 32.6406 110.133C40.6484 111.793 48.3145 113.404 55.6387 114.967C63.0605 116.529 71.0195 118.678 79.5156 121.412C96.2148 126.881 108.52 134.352 116.43 143.824C124.438 153.199 128.441 165.406 128.441 180.445Z" fill="#C4C4C4" fill-opacity="0.5"/>
</mask>
<g mask="url(#mask0)">
<rect x="1" y="-17.2794" width="205" height="259.627" fill="#C4C4C4" fill-opacity="0.5"/>
</g>
<path d="M274.195 34.5156C274.195 36.2344 273.465 37.6328 272.004 38.7109C270.551 39.7812 268.574 40.3164 266.074 40.3164C264.629 40.3164 263.367 40.1914 262.289 39.9414C261.219 39.6836 260.215 39.3594 259.277 38.9688V34.7852H259.77C260.699 35.5273 261.738 36.0977 262.887 36.4961C264.043 36.8945 265.152 37.0938 266.215 37.0938C266.488 37.0938 266.848 37.0703 267.293 37.0234C267.738 36.9766 268.102 36.8984 268.383 36.7891C268.727 36.6484 269.008 36.4727 269.227 36.2617C269.453 36.0508 269.566 35.7383 269.566 35.3242C269.566 34.9414 269.402 34.6133 269.074 34.3398C268.754 34.0586 268.281 33.8438 267.656 33.6953C267 33.5391 266.305 33.3945 265.57 33.2617C264.844 33.1211 264.16 32.9453 263.52 32.7344C262.051 32.2578 260.992 31.6133 260.344 30.8008C259.703 29.9805 259.383 28.9648 259.383 27.7539C259.383 26.1289 260.109 24.8047 261.562 23.7812C263.023 22.75 264.898 22.2344 267.188 22.2344C268.336 22.2344 269.469 22.3477 270.586 22.5742C271.711 22.793 272.684 23.0703 273.504 23.4062V27.4258H273.023C272.32 26.8633 271.457 26.3945 270.434 26.0195C269.418 25.6367 268.379 25.4453 267.316 25.4453C266.941 25.4453 266.566 25.4727 266.191 25.5273C265.824 25.5742 265.469 25.668 265.125 25.8086C264.82 25.9258 264.559 26.1055 264.34 26.3477C264.121 26.582 264.012 26.8516 264.012 27.1562C264.012 27.6172 264.188 27.9727 264.539 28.2227C264.891 28.4648 265.555 28.6875 266.531 28.8906C267.172 29.0234 267.785 29.1523 268.371 29.2773C268.965 29.4023 269.602 29.5742 270.281 29.793C271.617 30.2305 272.602 30.8281 273.234 31.5859C273.875 32.3359 274.195 33.3125 274.195 34.5156ZM290.941 25.9258H285.492V40H280.992V25.9258H275.543V22.5508H290.941V25.9258ZM309.773 40H305.121L303.914 36.4727H297.445L296.238 40H291.703L298.148 22.5508H303.328L309.773 40ZM302.824 33.2734L300.68 27.0156L298.535 33.2734H302.824ZM328.148 40H323.812L316.406 28.0234V40H312.281V22.5508H317.66L324.023 32.5469V22.5508H328.148V40ZM349.09 31.293C349.09 32.918 348.719 34.375 347.977 35.6641C347.234 36.9453 346.297 37.9297 345.164 38.6172C344.312 39.1328 343.379 39.4922 342.363 39.6953C341.348 39.8984 340.145 40 338.754 40H332.602V22.5508H338.93C340.352 22.5508 341.578 22.6719 342.609 22.9141C343.641 23.1484 344.508 23.4844 345.211 23.9219C346.414 24.6562 347.359 25.6484 348.047 26.8984C348.742 28.1406 349.09 29.6055 349.09 31.293ZM344.438 31.2578C344.438 30.1094 344.227 29.1289 343.805 28.3164C343.391 27.4961 342.73 26.8555 341.824 26.3945C341.363 26.168 340.891 26.0156 340.406 25.9375C339.93 25.8516 339.207 25.8086 338.238 25.8086H337.102V36.7305H338.238C339.309 36.7305 340.094 36.6836 340.594 36.5898C341.094 36.4883 341.582 36.3086 342.059 36.0508C342.879 35.582 343.48 34.957 343.863 34.1758C344.246 33.3867 344.438 32.4141 344.438 31.2578ZM368.648 40H363.996L362.789 36.4727H356.32L355.113 40H350.578L357.023 22.5508H362.203L368.648 40ZM361.699 33.2734L359.555 27.0156L357.41 33.2734H361.699ZM380.941 27.8945C380.941 27.457 380.852 27.082 380.672 26.7695C380.492 26.457 380.184 26.2109 379.746 26.0312C379.441 25.9062 379.086 25.832 378.68 25.8086C378.273 25.7773 377.801 25.7617 377.262 25.7617H375.633V30.4609H377.016C377.734 30.4609 378.336 30.4258 378.82 30.3555C379.305 30.2852 379.711 30.125 380.039 29.875C380.352 29.6328 380.578 29.3672 380.719 29.0781C380.867 28.7812 380.941 28.3867 380.941 27.8945ZM387.961 40H382.465L377.707 33.6016H375.633V40H371.156V22.5508H378.703C379.734 22.5508 380.621 22.6094 381.363 22.7266C382.105 22.8438 382.801 23.0977 383.449 23.4883C384.105 23.8789 384.625 24.3867 385.008 25.0117C385.398 25.6289 385.594 26.4062 385.594 27.3438C385.594 28.6328 385.293 29.6836 384.691 30.4961C384.098 31.3086 383.246 31.9844 382.137 32.5234L387.961 40ZM406.418 31.293C406.418 32.918 406.047 34.375 405.305 35.6641C404.562 36.9453 403.625 37.9297 402.492 38.6172C401.641 39.1328 400.707 39.4922 399.691 39.6953C398.676 39.8984 397.473 40 396.082 40H389.93V22.5508H396.258C397.68 22.5508 398.906 22.6719 399.938 22.9141C400.969 23.1484 401.836 23.4844 402.539 23.9219C403.742 24.6562 404.688 25.6484 405.375 26.8984C406.07 28.1406 406.418 29.6055 406.418 31.293ZM401.766 31.2578C401.766 30.1094 401.555 29.1289 401.133 28.3164C400.719 27.4961 400.059 26.8555 399.152 26.3945C398.691 26.168 398.219 26.0156 397.734 25.9375C397.258 25.8516 396.535 25.8086 395.566 25.8086H394.43V36.7305H395.566C396.637 36.7305 397.422 36.6836 397.922 36.5898C398.422 36.4883 398.91 36.3086 399.387 36.0508C400.207 35.582 400.809 34.957 401.191 34.1758C401.574 33.3867 401.766 32.4141 401.766 31.2578ZM273.879 54.9258H268.43V69H263.93V54.9258H258.48V51.5508H273.879V54.9258ZM293.555 60.2812C293.555 63.0625 292.758 65.2734 291.164 66.9141C289.57 68.5469 287.367 69.3633 284.555 69.3633C281.75 69.3633 279.551 68.5469 277.957 66.9141C276.363 65.2734 275.566 63.0625 275.566 60.2812C275.566 57.4766 276.363 55.2617 277.957 53.6367C279.551 52.0039 281.75 51.1875 284.555 51.1875C287.352 51.1875 289.551 52.0039 291.152 53.6367C292.754 55.2617 293.555 57.4766 293.555 60.2812ZM287.59 64.6992C288.027 64.168 288.352 63.543 288.562 62.8242C288.773 62.0977 288.879 61.2461 288.879 60.2695C288.879 59.2227 288.758 58.332 288.516 57.5977C288.273 56.8633 287.957 56.2695 287.566 55.8164C287.168 55.3477 286.707 55.0078 286.184 54.7969C285.668 54.5859 285.129 54.4805 284.566 54.4805C283.996 54.4805 283.457 54.582 282.949 54.7852C282.449 54.9883 281.988 55.3242 281.566 55.793C281.176 56.2305 280.855 56.8359 280.605 57.6094C280.363 58.375 280.242 59.2656 280.242 60.2812C280.242 61.3203 280.359 62.207 280.594 62.9414C280.836 63.668 281.152 64.2617 281.543 64.7227C281.934 65.1836 282.391 65.5234 282.914 65.7422C283.438 65.9609 283.988 66.0703 284.566 66.0703C285.145 66.0703 285.695 65.9609 286.219 65.7422C286.742 65.5156 287.199 65.168 287.59 64.6992ZM312.281 62.6836C312.281 64.8398 311.625 66.4922 310.312 67.6406C309 68.7891 307.066 69.3633 304.512 69.3633C301.957 69.3633 300.023 68.7891 298.711 67.6406C297.406 66.4922 296.754 64.8438 296.754 62.6953V51.5508H301.277V62.4375C301.277 63.6484 301.531 64.5508 302.039 65.1445C302.547 65.7383 303.371 66.0352 304.512 66.0352C305.637 66.0352 306.457 65.75 306.973 65.1797C307.496 64.6094 307.758 63.6953 307.758 62.4375V51.5508H312.281V62.6836ZM326.285 56.8945C326.285 56.457 326.195 56.082 326.016 55.7695C325.836 55.457 325.527 55.2109 325.09 55.0312C324.785 54.9062 324.43 54.832 324.023 54.8086C323.617 54.7773 323.145 54.7617 322.605 54.7617H320.977V59.4609H322.359C323.078 59.4609 323.68 59.4258 324.164 59.3555C324.648 59.2852 325.055 59.125 325.383 58.875C325.695 58.6328 325.922 58.3672 326.062 58.0781C326.211 57.7812 326.285 57.3867 326.285 56.8945ZM333.305 69H327.809L323.051 62.6016H320.977V69H316.5V51.5508H324.047C325.078 51.5508 325.965 51.6094 326.707 51.7266C327.449 51.8438 328.145 52.0977 328.793 52.4883C329.449 52.8789 329.969 53.3867 330.352 54.0117C330.742 54.6289 330.938 55.4062 330.938 56.3438C330.938 57.6328 330.637 58.6836 330.035 59.4961C329.441 60.3086 328.59 60.9844 327.48 61.5234L333.305 69Z" fill="#C4C4C4"/>
<rect x="431.5" y="0.5" width="242" height="431" rx="9.5" transform="rotate(90 431.5 0.5)" stroke="#C4C4C4" stroke-opacity="0.5"/>
</svg>
