<svg width="243" height="355" viewBox="0 0 243 355" fill="none" xmlns="http://www.w3.org/2000/svg">
<rect width="243" height="355" fill="#E5E5E5"/>
<rect x="0.5" y="0.5" width="242" height="354" rx="8.5" fill="#777FA8" stroke="#777FA8"/>
<mask id="mask0" mask-type="alpha" maskUnits="userSpaceOnUse" x="-72" y="83" width="223" height="219">
<path d="M150.586 83.8848L71.0449 302H8.05664L-71.4844 83.8848H-12.4512L40.2832 237.107L93.0176 83.8848H150.586Z" fill="#C4C4C4" fill-opacity="0.2"/>
</mask>
<g mask="url(#mask0)">
<rect y="41" width="205" height="298" fill="white"/>
</g>
<path d="M43.0469 23.5508L36.6836 41H31.6445L25.2812 23.5508H30.0039L34.2227 35.8086L38.4414 23.5508H43.0469ZM54.9883 41H44.7695V37.9062H47.6289V26.6445H44.7695V23.5508H54.9883V26.6445H52.1289V37.9062H54.9883V41ZM73.0586 29.0586C73.0586 29.8398 72.9219 30.6055 72.6484 31.3555C72.375 32.0977 71.9844 32.7227 71.4766 33.2305C70.7812 33.918 70.0039 34.4375 69.1445 34.7891C68.293 35.1406 67.2305 35.3164 65.957 35.3164H63.1562V41H58.6562V23.5508H66.0625C67.1719 23.5508 68.1055 23.6484 68.8633 23.8438C69.6289 24.0312 70.3047 24.3164 70.8906 24.6992C71.5938 25.1602 72.1289 25.75 72.4961 26.4688C72.8711 27.1875 73.0586 28.0508 73.0586 29.0586ZM68.4062 29.1641C68.4062 28.6719 68.2734 28.25 68.0078 27.8984C67.7422 27.5391 67.4336 27.2891 67.082 27.1484C66.6133 26.9609 66.1562 26.8594 65.7109 26.8438C65.2656 26.8203 64.6719 26.8086 63.9297 26.8086H63.1562V32.0352H64.4453C65.2109 32.0352 65.8398 31.9883 66.332 31.8945C66.832 31.8008 67.25 31.6133 67.5859 31.332C67.875 31.082 68.082 30.7852 68.207 30.4414C68.3398 30.0898 68.4062 29.6641 68.4062 29.1641ZM40.8789 55.9258H35.4297V70H30.9297V55.9258H25.4805V52.5508H40.8789V55.9258ZM60.5547 61.2812C60.5547 64.0625 59.7578 66.2734 58.1641 67.9141C56.5703 69.5469 54.3672 70.3633 51.5547 70.3633C48.75 70.3633 46.5508 69.5469 44.957 67.9141C43.3633 66.2734 42.5664 64.0625 42.5664 61.2812C42.5664 58.4766 43.3633 56.2617 44.957 54.6367C46.5508 53.0039 48.75 52.1875 51.5547 52.1875C54.3516 52.1875 56.5508 53.0039 58.1523 54.6367C59.7539 56.2617 60.5547 58.4766 60.5547 61.2812ZM54.5898 65.6992C55.0273 65.168 55.3516 64.543 55.5625 63.8242C55.7734 63.0977 55.8789 62.2461 55.8789 61.2695C55.8789 60.2227 55.7578 59.332 55.5156 58.5977C55.2734 57.8633 54.957 57.2695 54.5664 56.8164C54.168 56.3477 53.707 56.0078 53.1836 55.7969C52.668 55.5859 52.1289 55.4805 51.5664 55.4805C50.9961 55.4805 50.457 55.582 49.9492 55.7852C49.4492 55.9883 48.9883 56.3242 48.5664 56.793C48.1758 57.2305 47.8555 57.8359 47.6055 58.6094C47.3633 59.375 47.2422 60.2656 47.2422 61.2812C47.2422 62.3203 47.3594 63.207 47.5938 63.9414C47.8359 64.668 48.1523 65.2617 48.543 65.7227C48.9336 66.1836 49.3906 66.5234 49.9141 66.7422C50.4375 66.9609 50.9883 67.0703 51.5664 67.0703C52.1445 67.0703 52.6953 66.9609 53.2188 66.7422C53.7422 66.5156 54.1992 66.168 54.5898 65.6992ZM79.2812 63.6836C79.2812 65.8398 78.625 67.4922 77.3125 68.6406C76 69.7891 74.0664 70.3633 71.5117 70.3633C68.957 70.3633 67.0234 69.7891 65.7109 68.6406C64.4062 67.4922 63.7539 65.8438 63.7539 63.6953V52.5508H68.2773V63.4375C68.2773 64.6484 68.5312 65.5508 69.0391 66.1445C69.5469 66.7383 70.3711 67.0352 71.5117 67.0352C72.6367 67.0352 73.457 66.75 73.9727 66.1797C74.4961 65.6094 74.7578 64.6953 74.7578 63.4375V52.5508H79.2812V63.6836ZM93.2852 57.8945C93.2852 57.457 93.1953 57.082 93.0156 56.7695C92.8359 56.457 92.5273 56.2109 92.0898 56.0312C91.7852 55.9062 91.4297 55.832 91.0234 55.8086C90.6172 55.7773 90.1445 55.7617 89.6055 55.7617H87.9766V60.4609H89.3594C90.0781 60.4609 90.6797 60.4258 91.1641 60.3555C91.6484 60.2852 92.0547 60.125 92.3828 59.875C92.6953 59.6328 92.9219 59.3672 93.0625 59.0781C93.2109 58.7812 93.2852 58.3867 93.2852 57.8945ZM100.305 70H94.8086L90.0508 63.6016H87.9766V70H83.5V52.5508H91.0469C92.0781 52.5508 92.9648 52.6094 93.707 52.7266C94.4492 52.8438 95.1445 53.0977 95.793 53.4883C96.4492 53.8789 96.9688 54.3867 97.3516 55.0117C97.7422 55.6289 97.9375 56.4062 97.9375 57.3438C97.9375 58.6328 97.6367 59.6836 97.0352 60.4961C96.4414 61.3086 95.5898 61.9844 94.4805 62.5234L100.305 70Z" fill="white"/>
</svg>
