<svg width="102" height="85" viewBox="0 0 102 85" fill="none" xmlns="http://www.w3.org/2000/svg">
<g clip-path="url(#clip0)">
<path d="M30.398 33.8087H24.9599V47.3613L30.398 44.3374V33.8087Z" fill="#777FA8"/>
<path d="M77.1503 33.8087H76.1429L73.677 48.4477L79.4258 51.762L77.1503 33.8087Z" fill="#777FA8"/>
<path d="M90.0162 8.0354H89.6955V14.7291H90.0162C92.4521 14.7291 93.3944 13.3873 93.3944 11.3847C93.3944 9.17688 92.2667 8.0354 90.0162 8.0354Z" fill="#777FA8"/>
<path d="M92.7427 33.8087H87.2395V46.7154L92.7427 43.5564V33.8087Z" fill="#777FA8"/>
<path d="M0 0V22.9998H102V0H0ZM16.5147 16.4463H14.9259L12.9762 10.023H12.9511L11.0967 16.4463H9.52287L6.36028 6.31317H8.43025L10.4752 13.2221H10.5002L12.48 6.31317H13.733L15.7929 13.2221H15.818L17.8078 6.31317H19.8777L16.5147 16.4463ZM30.5033 8.0354H27.2354V10.2683H30.383V11.9905H27.2354V14.7341H30.5033V16.4563H25.2557V6.31317H30.5033V8.0354ZM41.9107 8.0354H38.6428V10.2683H41.7904V11.9905H38.6428V14.7341H41.9107V16.4563H36.6631V6.31317H41.9107V8.0354ZM53.3181 16.4463L50.0753 11.8904H50.0502V16.4463H48.0705V6.31317H50.0502V10.5887H50.0753L53.2078 6.31317H55.6437L51.7944 10.9892L55.8592 16.4463H53.3181ZM66.5047 8.0354H63.2369V10.2683H66.3845V11.9905H63.2369V14.7341H66.5047V16.4563H61.2571V6.31317H66.5047V8.0354ZM81.4356 16.4463H79.8618L74.6694 9.56738H74.6443V16.4463H72.6645V6.31317H74.2935L79.4308 13.127H79.4559V6.31317H81.4356V16.4463V16.4463ZM90.5325 16.4463H87.7207V6.31317H90.5475C93.4795 6.31317 95.4443 8.50601 95.4443 11.3947C95.4392 14.2434 93.4244 16.4463 90.5325 16.4463Z" fill="#777FA8"/>
<path d="M0 81.4704L22.4138 68.3434L50.9925 85L79.4909 68.3985L102.005 81.4704V24.8772H0V81.4704ZM73.4414 64.889L50.9925 77.9659L28.4383 64.8189L35.8962 60.4482L39.6753 62.6411L49.8497 56.6834L58.691 61.815L60.2096 60.9238L64.2944 63.2919L67.4821 61.4245L72.7948 64.5085L73.4414 64.889ZM84.8588 31.4307H95.1185V44.8981L95.0333 44.9482L91.0637 47.2361L95.1936 69.7603L92.4972 68.2033L88.8735 48.4928L87.2395 49.434V65.1643L84.8588 63.7875V31.4307V31.4307ZM79.2253 31.4307L83.1998 62.8413L80.6437 61.3644L79.7866 54.6007L73.271 50.8608L72.3137 56.5532L70.1385 55.2966L74.1331 31.4257H79.2253V31.4307ZM62.8109 31.4307H70.5595V33.8088H67.9282L67.9181 54.0199L65.4322 52.583L65.4422 33.8037H62.8109V31.4307ZM52.2004 42.2196L58.1898 45.6691L58.1998 39.1607H52.2104V31.4307H60.7108V33.8088H54.7014V36.7826H60.7108L60.7008 49.8495L52.2004 44.9532V42.2196ZM35.5354 31.4307H37.9161V48.8382L39.1741 48.1023L41.0686 36.7826H44.2814L46.0055 44.1571L47.0731 43.5313V31.4307H49.4538V44.9382L44.4217 47.8419L42.7878 40.8529L41.3042 49.6493L35.5303 52.9836V31.4307H35.5354ZM22.5792 31.4307H32.7787V45.7592L24.96 50.0998V56.3679L32.7787 51.782V54.5806L22.5792 60.4683V31.4307V31.4307ZM6.54071 31.4307H6.56076H10.0792L16.8906 60.7937H17.2414V31.4307H19.6221V62.1705L15.3519 64.6336L9.17704 38.1894H8.92143V68.3134L6.54071 69.7252V31.4307Z" fill="#777FA8"/>
</g>
<defs>
<clipPath id="clip0">
<rect width="102" height="85" fill="white"/>
</clipPath>
</defs>
</svg>
