<svg width="182" height="251" viewBox="0 0 182 251" fill="none" xmlns="http://www.w3.org/2000/svg">
<path d="M0 8.99999C0 4.02943 4.02944 0 9 0H172.145C177.116 0 181.145 4.02944 181.145 9V241.626C181.145 246.596 177.116 250.626 172.145 250.626H8.99999C4.02943 250.626 0 246.596 0 241.626V8.99999Z" fill="#6BC9B9"/>
<rect x="69.4804" y="13.2344" width="42.1845" height="8.27148" rx="4.13574" fill="#F6D000"/>
<path d="M44.666 127.234L64.6952 115.573L90.6916 130.689L116.618 115.624L116.629 115.616L136.737 127.227V57.9003H44.666V127.234Z" fill="white"/>
<path d="M103.245 110.459C102.649 110.459 101.313 110.483 100.878 110.483V118.189H102.646V115.569C102.92 115.601 103.343 115.601 103.508 115.601C105.298 115.601 106.372 114.39 106.372 113.012C106.372 111.681 105.596 110.459 103.245 110.459Z" fill="#0B0907"/>
<path d="M85.5316 110.483L82.3148 118.189H84.0975L84.7362 116.573H87.7962L88.4388 118.189H90.3273L87.1105 110.483H85.5316Z" fill="#0B0907"/>
<path d="M80.9199 116.108C80.4027 116.495 79.7915 116.67 79.2391 116.67C77.8481 116.67 76.8961 115.702 76.8961 114.336C76.8961 112.817 77.8677 112.001 79.0628 112.001C79.7915 112.001 80.2225 112.224 80.6417 112.474L81.4254 111.154C80.963 110.701 80.0893 110.35 79.0588 110.35C76.3945 110.35 75.0154 112.122 75.0154 114.336C75.0154 116.737 76.6727 118.322 79.0706 118.322C80.1206 118.322 81.1276 117.947 81.5899 117.432L80.9199 116.108Z" fill="#0B0907"/>
<path d="M91.3145 110.483V118.189H93.0816V113.313L95.2287 116.284H95.4794L97.6383 113.282V118.189H99.4053V110.483H97.7362L95.4794 113.731L93.0933 110.483H91.3145Z" fill="#0B0907"/>
<path d="M44.666 127.234L64.6952 115.573L90.6916 130.689L116.614 115.624L116.629 115.616L136.733 127.227V57.9003H44.666V127.234ZM66.8697 114.308L68.5349 113.34L73.0603 110.713L90.7112 100.578L114.357 114.305L114.451 114.359L114.435 114.367L90.6956 128.164L66.8697 114.308ZM134.543 79.3876V83.0066V119.692V123.432L131.412 121.624L117.26 113.45L90.6916 98.0524L50.0377 121.578L46.8562 123.428V79.3876H134.543ZM134.543 60.0866V77.2053H46.8601V60.0866H134.543Z" fill="#0B0907"/>
<path d="M85.837 66.8951C85.837 68.0584 86.6559 68.7846 87.7177 69.1984C88.7442 69.6083 89.5748 69.7801 89.5748 70.475C89.5748 70.8537 89.2888 71.2636 88.4699 71.2636C87.608 71.2636 86.9615 70.842 86.6128 70.2173L85.4217 71.0918C85.8762 72.0522 86.8674 72.8486 88.4582 72.8486C90.3349 72.8486 91.2087 71.8258 91.2087 70.4242C91.2087 69.2804 90.6562 68.6089 89.3162 68.0624C88.1173 67.5548 87.4473 67.5353 87.4473 66.8756C87.4473 66.5008 87.8705 66.2236 88.4229 66.2236C89.0577 66.2236 89.567 66.4734 89.8374 66.8404L90.9305 65.9503C90.4838 65.2788 89.6219 64.6503 88.3798 64.6503C87.0673 64.6464 85.837 65.4662 85.837 66.8951Z" fill="#0B0907"/>
<path d="M72.5588 64.7517H70.9171V72.7353H72.5588V64.7517Z" fill="#0B0907"/>
<path d="M96.212 64.7517H94.5664V72.7353H96.212V64.7517Z" fill="#0B0907"/>
<path d="M104.589 72.7392V71.1347H101.854V64.7517H100.213V72.7392H104.589Z" fill="#0B0907"/>
<path d="M110.486 72.7392L113.036 64.7517H111.289L109.698 70.0299L108.017 64.7517H106.266L108.915 72.7392H110.486Z" fill="#0B0907"/>
<path d="M120.626 72.7392V71.1347H117.719V69.7644H120.081V68.2419H117.719V66.3563H120.642V64.7517H116.077V72.7392H120.626Z" fill="#0B0907"/>
<path d="M126.056 72.7432V66.3563H127.326C127.847 66.3563 128.25 66.7936 128.25 67.4104C128.25 68.0858 127.827 68.523 127.185 68.523H126.828V70.0026L128.529 72.7393H130.386L128.466 69.8738C129.387 69.4756 129.9 68.4254 129.9 67.383C129.9 65.8917 128.756 64.7479 127.369 64.7479H124.426V72.7393H126.056V72.7432Z" fill="#0B0907"/>
<path d="M62.4894 69.0813V64.6854H60.8477V69.4443C60.8477 71.7008 62.2778 72.8017 64.0136 72.8017C65.7414 72.8017 67.1754 71.7008 67.1754 69.4443V64.6854H65.5299V69.0813C65.5299 70.475 64.9225 71.0176 64.0136 71.0176C63.1006 71.0176 62.4894 70.4789 62.4894 69.0813Z" fill="#0B0907"/>
<path d="M53.9321 71.2713C52.6117 71.244 51.5969 70.1587 51.5969 68.7455C51.5969 67.3596 52.6352 66.2235 53.9791 66.2235C55.323 66.2235 56.3613 67.3674 56.3613 68.7455C56.3613 69.2218 56.2438 69.659 56.04 70.0299L54.8803 68.523L53.6187 69.6161L56.0205 72.7392H58.1166L57.0979 71.4158C57.6896 70.7014 58.0422 69.7722 58.0422 68.7455C58.0422 66.4422 56.2359 64.6268 53.9791 64.6268C51.7262 64.6268 49.9122 66.4422 49.9122 68.7455C49.9122 71.0644 51.7262 72.8681 53.9791 72.8681C54.3396 72.8681 54.6883 72.8251 55.0213 72.7353L53.9321 71.2713Z" fill="#0B0907"/>
<path d="M78.1146 64.7517H76.5591V72.7392H78.1146H78.2008V71.1112L79.1764 69.862L81.3313 72.7392H81.4528H83.3687H83.3726L80.246 68.5268L83.1963 64.7517H81.1668L78.2008 68.5346V64.7517H78.1146Z" fill="#0B0907"/>
<path d="M66.8619 105.919V100.161L74.0633 96.1707V83.0105H64.6678V109.686L74.0594 104.279V101.706L66.8619 105.919ZM66.8619 85.1928H71.8692V94.8629L66.8619 97.6425V85.1928V85.1928Z" fill="#0B0907"/>
<path d="M59.7546 83.0105V109.991H59.4294L53.1566 83.0105H49.9124H49.8967V118.189L52.0908 116.893V89.2139H52.3259L58.0111 113.516L61.9448 111.252V83.0105H59.7546Z" fill="#0B0907"/>
<path d="M124.23 114.016V99.5593L125.735 98.6926L129.069 116.803L131.553 118.232L127.753 97.5332L131.412 95.4289L131.491 95.3821V83.0066H122.036V112.751L124.23 114.016ZM124.23 85.1928H129.296V94.1484L124.23 97.0491V85.1928Z" fill="#0B0907"/>
<path d="M89.4222 95.4211V83.0105H87.2281V94.1289L86.2485 94.7028L84.6617 87.9256H81.6996L79.9522 98.3257L78.7964 99.005V83.0105H76.6022V102.815L81.9191 99.7545L83.2825 91.6695L84.7871 98.0914L89.4222 95.4211Z" fill="#0B0907"/>
<path d="M104.15 85.1928L104.142 102.448L106.434 103.768L106.442 85.1928H108.864V83.0105H101.729V85.1928H104.15Z" fill="#0B0907"/>
<path d="M91.961 90.1118H97.4776L97.4659 96.0926L91.9531 92.9187V95.4328L99.7814 99.9341L99.7893 87.9256H94.253V85.1928H99.7893V83.0105H91.961V90.1118Z" fill="#0B0907"/>
<path d="M112.151 83.0105L108.472 104.943L110.474 106.094L111.359 100.863L117.362 104.299L118.153 110.514L120.508 111.868L116.849 83.0066H112.151V83.0105ZM117.029 101.691L111.732 98.6458L114.004 85.1967H114.929L117.029 101.691Z" fill="#0B0907"/>
<path d="M44.666 127.234L64.6952 115.573L90.6916 130.689L116.618 115.624L116.629 115.616L136.737 127.227V57.9003H44.666V127.234Z" fill="white"/>
<path d="M103.245 110.459C102.649 110.459 101.313 110.483 100.878 110.483V118.189H102.646V115.569C102.92 115.601 103.343 115.601 103.508 115.601C105.298 115.601 106.372 114.39 106.372 113.012C106.372 111.681 105.596 110.459 103.245 110.459Z" fill="#0B0907"/>
<path d="M85.5316 110.483L82.3148 118.189H84.0975L84.7362 116.573H87.7962L88.4388 118.189H90.3273L87.1105 110.483H85.5316Z" fill="#0B0907"/>
<path d="M80.9199 116.108C80.4027 116.495 79.7915 116.67 79.2391 116.67C77.8481 116.67 76.8961 115.702 76.8961 114.336C76.8961 112.817 77.8677 112.001 79.0628 112.001C79.7915 112.001 80.2225 112.224 80.6417 112.474L81.4254 111.154C80.963 110.701 80.0893 110.35 79.0588 110.35C76.3945 110.35 75.0154 112.122 75.0154 114.336C75.0154 116.737 76.6727 118.322 79.0706 118.322C80.1206 118.322 81.1276 117.947 81.5899 117.432L80.9199 116.108Z" fill="#0B0907"/>
<path d="M91.3145 110.483V118.189H93.0816V113.313L95.2287 116.284H95.4794L97.6383 113.282V118.189H99.4053V110.483H97.7362L95.4794 113.731L93.0933 110.483H91.3145Z" fill="#0B0907"/>
<path d="M44.666 127.234L64.6952 115.573L90.6916 130.689L116.614 115.624L116.629 115.616L136.733 127.227V57.9003H44.666V127.234ZM66.8697 114.308L68.5349 113.34L73.0603 110.713L90.7112 100.578L114.357 114.305L114.451 114.359L114.435 114.367L90.6956 128.164L66.8697 114.308ZM134.543 79.3876V83.0066V119.692V123.432L131.412 121.624L117.26 113.45L90.6916 98.0524L50.0377 121.578L46.8562 123.428V79.3876H134.543ZM134.543 60.0866V77.2053H46.8601V60.0866H134.543Z" fill="#0B0907"/>
<path d="M85.837 66.8951C85.837 68.0584 86.6559 68.7846 87.7177 69.1984C88.7442 69.6083 89.5748 69.7801 89.5748 70.475C89.5748 70.8537 89.2888 71.2636 88.4699 71.2636C87.608 71.2636 86.9615 70.842 86.6128 70.2173L85.4217 71.0918C85.8762 72.0522 86.8674 72.8486 88.4582 72.8486C90.3349 72.8486 91.2087 71.8258 91.2087 70.4242C91.2087 69.2804 90.6562 68.6089 89.3162 68.0624C88.1173 67.5548 87.4473 67.5353 87.4473 66.8756C87.4473 66.5008 87.8705 66.2236 88.4229 66.2236C89.0577 66.2236 89.567 66.4734 89.8374 66.8404L90.9305 65.9503C90.4838 65.2788 89.6219 64.6503 88.3798 64.6503C87.0673 64.6464 85.837 65.4662 85.837 66.8951Z" fill="#0B0907"/>
<path d="M72.5588 64.7517H70.9171V72.7353H72.5588V64.7517Z" fill="#0B0907"/>
<path d="M96.212 64.7517H94.5664V72.7353H96.212V64.7517Z" fill="#0B0907"/>
<path d="M104.589 72.7392V71.1347H101.854V64.7517H100.213V72.7392H104.589Z" fill="#0B0907"/>
<path d="M110.486 72.7392L113.036 64.7517H111.289L109.698 70.0299L108.017 64.7517H106.266L108.915 72.7392H110.486Z" fill="#0B0907"/>
<path d="M120.626 72.7392V71.1347H117.719V69.7644H120.081V68.2419H117.719V66.3563H120.642V64.7517H116.077V72.7392H120.626Z" fill="#0B0907"/>
<path d="M126.056 72.7432V66.3563H127.326C127.847 66.3563 128.25 66.7936 128.25 67.4104C128.25 68.0858 127.827 68.523 127.185 68.523H126.828V70.0026L128.529 72.7393H130.386L128.466 69.8738C129.387 69.4756 129.9 68.4254 129.9 67.383C129.9 65.8917 128.756 64.7479 127.369 64.7479H124.426V72.7393H126.056V72.7432Z" fill="#0B0907"/>
<path d="M62.4894 69.0813V64.6854H60.8477V69.4443C60.8477 71.7008 62.2778 72.8017 64.0136 72.8017C65.7414 72.8017 67.1754 71.7008 67.1754 69.4443V64.6854H65.5299V69.0813C65.5299 70.475 64.9225 71.0176 64.0136 71.0176C63.1006 71.0176 62.4894 70.4789 62.4894 69.0813Z" fill="#0B0907"/>
<path d="M53.9321 71.2713C52.6117 71.244 51.5969 70.1587 51.5969 68.7455C51.5969 67.3596 52.6352 66.2235 53.9791 66.2235C55.323 66.2235 56.3613 67.3674 56.3613 68.7455C56.3613 69.2218 56.2438 69.659 56.04 70.0299L54.8803 68.523L53.6187 69.6161L56.0205 72.7392H58.1166L57.0979 71.4158C57.6896 70.7014 58.0422 69.7722 58.0422 68.7455C58.0422 66.4422 56.2359 64.6268 53.9791 64.6268C51.7262 64.6268 49.9122 66.4422 49.9122 68.7455C49.9122 71.0644 51.7262 72.8681 53.9791 72.8681C54.3396 72.8681 54.6883 72.8251 55.0213 72.7353L53.9321 71.2713Z" fill="#0B0907"/>
<path d="M78.1146 64.7517H76.5591V72.7392H78.1146H78.2008V71.1112L79.1764 69.862L81.3313 72.7392H81.4528H83.3687H83.3726L80.246 68.5268L83.1963 64.7517H81.1668L78.2008 68.5346V64.7517H78.1146Z" fill="#0B0907"/>
<path d="M66.8619 105.919V100.161L74.0633 96.1707V83.0105H64.6678V109.686L74.0594 104.279V101.706L66.8619 105.919ZM66.8619 85.1928H71.8692V94.8629L66.8619 97.6425V85.1928V85.1928Z" fill="#0B0907"/>
<path d="M59.7546 83.0105V109.991H59.4294L53.1566 83.0105H49.9124H49.8967V118.189L52.0908 116.893V89.2139H52.3259L58.0111 113.516L61.9448 111.252V83.0105H59.7546Z" fill="#0B0907"/>
<path d="M124.23 114.016V99.5593L125.735 98.6926L129.069 116.803L131.553 118.232L127.753 97.5332L131.412 95.4289L131.491 95.3821V83.0066H122.036V112.751L124.23 114.016ZM124.23 85.1928H129.296V94.1484L124.23 97.0491V85.1928Z" fill="#0B0907"/>
<path d="M89.4222 95.4211V83.0105H87.2281V94.1289L86.2485 94.7028L84.6617 87.9256H81.6996L79.9522 98.3257L78.7964 99.005V83.0105H76.6022V102.815L81.9191 99.7545L83.2825 91.6695L84.7871 98.0914L89.4222 95.4211Z" fill="#0B0907"/>
<path d="M104.15 85.1928L104.142 102.448L106.434 103.768L106.442 85.1928H108.864V83.0105H101.729V85.1928H104.15Z" fill="#0B0907"/>
<path d="M91.961 90.1118H97.4776L97.4659 96.0926L91.9531 92.9187V95.4328L99.7814 99.9341L99.7893 87.9256H94.253V85.1928H99.7893V83.0105H91.961V90.1118Z" fill="#0B0907"/>
<path d="M112.151 83.0105L108.472 104.943L110.474 106.094L111.359 100.863L117.362 104.299L118.153 110.514L120.508 111.868L116.849 83.0066H112.151V83.0105ZM117.029 101.691L111.732 98.6458L114.004 85.1967H114.929L117.029 101.691Z" fill="#0B0907"/>
</svg>
