<svg width="112" height="88" viewBox="0 0 112 88" fill="none" xmlns="http://www.w3.org/2000/svg">
<path d="M0 83.823L24.2148 69.7251L55.6438 88L86.9875 69.7864L87.0017 69.777L111.311 83.8136V0H0V83.823Z" fill="white"/>
<path d="M70.8206 63.5422C70.1006 63.5422 68.4853 63.5705 67.9595 63.5705V72.8873H70.0959V69.7203C70.4274 69.7581 70.939 69.7581 71.138 69.7581C73.3027 69.7581 74.6006 68.295 74.6006 66.6289C74.6006 65.0195 73.6627 63.5422 70.8206 63.5422Z" fill="#0B0907"/>
<path d="M49.4054 63.5704L45.5165 72.8873H47.6717L48.4438 70.9333H52.1433L52.9202 72.8873H55.2033L51.3144 63.5704H49.4054Z" fill="#0B0907"/>
<path d="M43.8301 70.3717C43.2048 70.8389 42.4659 71.0513 41.798 71.0513C40.1164 71.0513 38.9654 69.8808 38.9654 68.2289C38.9654 66.3929 40.1401 65.4065 41.5848 65.4065C42.4659 65.4065 42.9869 65.6755 43.4938 65.9776L44.4412 64.3823C43.8822 63.8348 42.8259 63.41 41.5801 63.41C38.359 63.41 36.6917 65.5528 36.6917 68.2289C36.6917 71.1316 38.6954 73.0478 41.5943 73.0478C42.8638 73.0478 44.0812 72.5947 44.6401 71.9717L43.8301 70.3717Z" fill="#0B0907"/>
<path d="M56.3969 63.5704V72.8873H58.5332V66.9923L61.129 70.584H61.4322L64.0422 66.9545V72.8873H66.1785V63.5704H64.1606L61.4322 67.4973L58.5474 63.5704H56.3969Z" fill="#0B0907"/>
<path d="M0 83.823L24.2148 69.7251L55.6438 88L86.9828 69.7864L87.0017 69.777L111.307 83.8136V0H0V83.823ZM26.8437 68.1959L28.8569 67.0254L34.328 63.849L55.6675 51.5965L84.2544 68.1911L84.3681 68.2572L84.3491 68.2667L55.6485 84.9463L26.8437 68.1959ZM108.659 25.9776V30.3528V74.7044V79.226L104.874 77.0407L87.7644 67.1575L55.6438 48.5428L6.49422 76.9841L2.6479 79.2212V25.9776H108.659ZM108.659 2.64307V23.3392H2.65264V2.64307H108.659Z" fill="#0B0907"/>
<path d="M49.7747 10.8744C49.7747 12.2809 50.7647 13.1588 52.0484 13.6591C53.2894 14.1546 54.2937 14.3623 54.2937 15.2024C54.2937 15.6602 53.9479 16.1558 52.9579 16.1558C51.9158 16.1558 51.1342 15.6461 50.7126 14.8909L49.2726 15.9481C49.8221 17.1092 51.0205 18.072 52.9437 18.072C55.2126 18.072 56.2689 16.8355 56.2689 15.1411C56.2689 13.7582 55.601 12.9464 53.981 12.2856C52.5315 11.672 51.7215 11.6484 51.7215 10.8508C51.7215 10.3977 52.2331 10.0626 52.901 10.0626C53.6684 10.0626 54.2842 10.3647 54.611 10.8083L55.9326 9.73221C55.3926 8.92041 54.3505 8.16053 52.8489 8.16053C51.2621 8.15581 49.7747 9.14696 49.7747 10.8744Z" fill="#0B0907"/>
<path d="M33.7216 8.28314H31.7369V17.9351H33.7216V8.28314Z" fill="#0B0907"/>
<path d="M62.3178 8.28314H60.3283V17.9351H62.3178V8.28314Z" fill="#0B0907"/>
<path d="M72.4455 17.9398V16H69.1392V8.28314H67.1545V17.9398H72.4455Z" fill="#0B0907"/>
<path d="M79.5743 17.9398L82.658 8.28314H80.5454L78.6222 14.6643L76.5901 8.28314H74.4727L77.6749 17.9398H79.5743Z" fill="#0B0907"/>
<path d="M91.8334 17.9398V16H88.3187V14.3433H91.175V12.5026H88.3187V10.223H91.8524V8.28314H86.3339V17.9398H91.8334Z" fill="#0B0907"/>
<path d="M98.3987 17.9446V10.223H99.9334C100.563 10.223 101.051 10.7516 101.051 11.4974C101.051 12.3139 100.54 12.8425 99.7629 12.8425H99.3318V14.6313L101.388 17.9398H103.633L101.312 14.4755C102.425 13.9941 103.046 12.7245 103.046 11.4643C103.046 9.66137 101.662 8.27848 99.9855 8.27848H96.4282V17.9398H98.3987V17.9446Z" fill="#0B0907"/>
<path d="M21.5481 13.5174V8.20298H19.5633V13.9564C19.5633 16.6844 21.2923 18.0154 23.3907 18.0154C25.4797 18.0154 27.2134 16.6844 27.2134 13.9564V8.20298H25.2239V13.5174C25.2239 15.2024 24.4897 15.8584 23.3907 15.8584C22.287 15.8584 21.5481 15.2071 21.5481 13.5174Z" fill="#0B0907"/>
<path d="M11.2026 16.1652C9.60624 16.1321 8.3794 14.82 8.3794 13.1115C8.3794 11.436 9.63466 10.0625 11.2594 10.0625C12.8841 10.0625 14.1394 11.4454 14.1394 13.1115C14.1394 13.6873 13.9973 14.2159 13.751 14.6643L12.3489 12.8425L10.8236 14.164L13.7273 17.9398H16.2615L15.0299 16.3398C15.7452 15.4761 16.1715 14.3528 16.1715 13.1115C16.1715 10.3268 13.9878 8.13214 11.2594 8.13214C8.53571 8.13214 6.34255 10.3268 6.34255 13.1115C6.34255 15.915 8.53571 18.0956 11.2594 18.0956C11.6952 18.0956 12.1168 18.0436 12.5194 17.9351L11.2026 16.1652Z" fill="#0B0907"/>
<path d="M40.4385 8.28314H38.558V17.9398H40.4385H40.5427V15.9716L41.7222 14.4613L44.3275 17.9398H44.4743H46.7906H46.7953L43.0153 12.8472L46.5822 8.28314H44.1285L40.5427 12.8566V8.28314H40.4385Z" fill="#0B0907"/>
<path d="M26.8343 58.0531V51.0914L35.5406 46.2678V30.3575H24.1817V62.6077L35.5359 56.0708V52.9605L26.8343 58.0531ZM26.8343 32.9959H32.888V44.6867L26.8343 48.0472V32.9959V32.9959Z" fill="#0B0907"/>
<path d="M18.2418 30.3575V62.9758H17.8487L10.265 30.3575H6.34285H6.32391V72.8873L8.97654 71.3204V37.8572H9.26075L16.1339 67.2378L20.8897 64.5003V30.3575H18.2418Z" fill="#0B0907"/>
<path d="M96.1913 67.8419V50.3646L98.0103 49.3168L102.041 71.2118L105.045 72.9392L100.45 47.915L104.874 45.3711L104.969 45.3144V30.3528H93.5387V66.3126L96.1913 67.8419ZM96.1913 32.9958H102.316V43.823L96.1913 47.3298V32.9958Z" fill="#0B0907"/>
<path d="M54.109 45.3617V30.3575H51.4564V43.7994L50.2722 44.4932L48.3538 36.2997H44.7727L42.6601 48.8732L41.2627 49.6944V30.3575H38.6101V54.3009L45.038 50.6006L46.6864 40.826L48.5053 48.59L54.109 45.3617Z" fill="#0B0907"/>
<path d="M71.9149 32.9959L71.9054 53.8572L74.6765 55.4525L74.686 32.9959H77.6133V30.3575H68.9875V32.9959H71.9149Z" fill="#0B0907"/>
<path d="M57.1784 38.9428H63.8479L63.8336 46.1735L57.1689 42.3363V45.3758L66.6331 50.8177L66.6426 36.2997H59.9494V32.9959H66.6426V30.3575H57.1784V38.9428Z" fill="#0B0907"/>
<path d="M81.5875 30.3575L77.1396 56.8731L79.5602 58.2654L80.6307 51.941L87.8876 56.0944L88.8444 63.6082L91.6912 65.246L87.267 30.3528H81.5875V30.3575ZM87.4849 52.9416L81.0807 49.2601L83.8281 33.0005H84.946L87.4849 52.9416Z" fill="#0B0907"/>
</svg>
