<svg width="68" height="56" viewBox="0 0 68 56" fill="none" xmlns="http://www.w3.org/2000/svg">
<path d="M19.9778 22.2466H16.4058V31.1623L19.9778 29.1727V22.2466Z" fill="#232559"/>
<path d="M50.7048 22.2466H50.0434L48.4224 31.8767L52.201 34.0585L50.7048 22.2466Z" fill="#232559"/>
<path d="M59.1641 5.28613H58.9521V9.68987H59.1641C60.7647 9.68987 61.3837 8.80595 61.3837 7.48762C61.3837 6.03762 60.6405 5.28613 59.1641 5.28613Z" fill="#232559"/>
<path d="M60.9523 22.2466H57.3379V30.7385L60.9523 28.6604V22.2466Z" fill="#232559"/>
<path d="M0 0V15.1335H67.04V0H0ZM10.8538 10.8213H9.81023L8.52824 6.59464H8.51007L7.29013 10.8213H6.2556L4.17747 4.15401H5.53893L6.88298 8.69927H6.90039L8.20055 4.15401H9.02318L10.3763 8.69927H10.3937L11.7022 4.15401H13.0644L10.8538 10.8213ZM20.0488 5.28616H17.8995V6.75433H19.9686V7.88648H17.8995V9.69066H20.0488V10.8228H16.6001V4.15552H20.0488V5.28616ZM27.5463 5.28616H25.397V6.75433H27.4661V7.88648H25.3978V9.69066H27.5471V10.8228H24.0984V4.15552H27.5471V5.28616H27.5463ZM35.0445 10.8213L32.9134 7.82367H32.8953V10.8213H31.5951V4.15401H32.8953V6.96623H32.9134L34.9742 4.15401H36.5748L34.0456 7.2311L36.7163 10.8213H35.0445ZM43.709 5.28616H41.5605V6.75433H43.6295V7.88648H41.5605V9.69066H43.709V10.8228H40.2603V4.15552H43.709V5.28616ZM53.5238 10.8213H52.4893L49.0761 6.29344H49.0587V10.8213H47.7586V4.15401H48.8287L52.207 8.63721H52.2244V4.15401H53.5245V10.8213H53.5238ZM59.5001 10.8213H57.6521V4.15401H59.5092C61.4368 4.15401 62.7278 5.59569 62.7278 7.49673C62.7278 9.3713 61.4012 10.8213 59.5001 10.8213Z" fill="#232559"/>
<path d="M0 53.6038L14.7324 44.9666L33.5136 55.9264L52.2425 45.0037L67.0393 53.6038V16.3691H0V53.6038ZM48.2679 42.694L33.5143 51.2987L18.6889 42.6471L23.5921 39.7728L26.0744 41.2152L32.7613 37.2958L38.5735 40.6734L39.5732 40.0876L42.2567 41.6473L44.353 40.4183L47.8449 42.448L48.2679 42.694ZM55.773 20.6813H62.5174V29.5433L62.4614 29.5758L59.8513 31.0826L62.5644 45.9043L60.7927 44.8811L58.4126 31.9136L57.338 32.5341V42.8855L55.773 41.9811V20.6813ZM52.07 20.6813L54.6824 41.3499L53.0016 40.379L52.4378 35.9291L48.1544 33.4687L47.524 37.2141L46.0944 36.3877L48.7189 20.6813H52.07ZM41.2827 20.6813H46.3744V22.2463H44.6459L44.6391 35.5461L43.0037 34.6024L43.0105 22.2463H41.2827V20.6813ZM34.3074 27.7785L38.2427 30.0496L38.2495 25.7677H34.3143V20.6813H39.9001V22.2463H35.9497V24.2026H39.9001L39.8933 32.8013L34.3074 29.5789V27.7785ZM23.3545 20.6813H24.9195V32.1353L25.7459 31.6502L26.9923 24.2034H29.1045L30.2367 29.0574L30.9367 28.6465V20.6813H32.5017V29.5705L29.1938 31.4814L28.1215 26.8832L27.1482 32.6726L23.3545 34.865V20.6813ZM14.8406 20.6813H21.5427V30.1063L16.4049 32.9632V37.0869L21.5427 34.0696V35.9117L14.8406 39.7841V20.6813ZM4.29931 20.6813H4.31217H6.62492L11.1021 40.0029H11.3329V20.6813H12.8979V40.9065L10.091 42.5282L6.03235 25.1259H5.8651V44.9469L4.30007 45.8748V20.6813H4.29931Z" fill="#232559"/>
</svg>
