<svg width="50" height="72" viewBox="0 0 50 72" fill="none" xmlns="http://www.w3.org/2000/svg">
<path d="M48.0625 71V72H49.0625V71H48.0625ZM1.46875 71H0.46875V72H1.46875V71ZM1.46875 58.8125V57.8125H0.46875V58.8125H1.46875ZM16.1875 58.8125V59.8125H17.1875V58.8125H16.1875ZM16.1875 21.9219H17.1875V20.9219H16.1875V21.9219ZM1.46875 21.9219H0.46875V22.9219H1.46875V21.9219ZM1.46875 10.5312V9.53125H0.46875V10.5312H1.46875ZM7.9375 10.1562L8.05783 11.149L8.06523 11.1481L8.07261 11.1471L7.9375 10.1562ZM13.0938 8.75L13.5245 9.65248L13.527 9.65125L13.0938 8.75ZM18.1562 1.01562V0.015625H17.2207L17.1585 0.949106L18.1562 1.01562ZM33.6719 1.01562H34.6719V0.015625H33.6719V1.01562ZM33.6719 58.8125H32.6719V59.8125H33.6719V58.8125ZM48.0625 58.8125H49.0625V57.8125H48.0625V58.8125ZM48.0625 70H1.46875V72H48.0625V70ZM2.46875 71V58.8125H0.46875V71H2.46875ZM1.46875 59.8125H16.1875V57.8125H1.46875V59.8125ZM17.1875 58.8125V21.9219H15.1875V58.8125H17.1875ZM16.1875 20.9219H1.46875V22.9219H16.1875V20.9219ZM2.46875 21.9219V10.5312H0.46875V21.9219H2.46875ZM1.46875 11.5312C3.75569 11.5312 5.95228 11.4042 8.05783 11.149L7.81717 9.16352C5.79772 9.4083 3.68181 9.53125 1.46875 9.53125V11.5312ZM8.07261 11.1471C10.2028 10.8566 12.029 10.3663 13.5245 9.65248L12.663 7.84752C11.4085 8.44625 9.79718 8.8934 7.80239 9.16542L8.07261 11.1471ZM13.527 9.65125C15.2825 8.80729 16.657 7.6811 17.5884 6.24811L15.9116 5.15814C15.218 6.22515 14.155 7.13021 12.6605 7.84875L13.527 9.65125ZM17.5884 6.24811C18.5153 4.82218 19.0206 3.08399 19.154 1.08214L17.1585 0.949106C17.0419 2.69726 16.6097 4.08407 15.9116 5.15814L17.5884 6.24811ZM18.1562 2.01562H33.6719V0.015625H18.1562V2.01562ZM32.6719 1.01562V58.8125H34.6719V1.01562H32.6719ZM33.6719 59.8125H48.0625V57.8125H33.6719V59.8125ZM47.0625 58.8125V71H49.0625V58.8125H47.0625Z" fill="#000000"/>
</svg>
