<svg width="58" height="76" viewBox="0 0 58 76" fill="none" xmlns="http://www.w3.org/2000/svg">
<path d="M51.625 40.2812L52.2758 39.522L52.2731 39.5197L51.625 40.2812ZM54.6719 61.0469L53.7639 60.6278L53.7601 60.6361L54.6719 61.0469ZM48.7188 68.3594L49.3188 69.1594L49.3217 69.1571L48.7188 68.3594ZM39.4375 72.9062L39.7178 73.8662L39.7233 73.8645L39.4375 72.9062ZM11.6406 73.0938L11.426 74.0705L11.4276 74.0708L11.6406 73.0938ZM1.5625 70.0469H0.5625V70.7032L1.16458 70.9643L1.5625 70.0469ZM1.5625 54.7188V53.7188H0.5625V54.7188H1.5625ZM3.39062 54.7188L3.90804 53.863L3.66945 53.7188H3.39062V54.7188ZM13 58.9375L12.6958 59.8901L12.6981 59.8908L13 58.9375ZM29.1719 60.2969L29.3031 61.2882L29.3102 61.2873L29.3174 61.2862L29.1719 60.2969ZM34.5625 58.3281L34.0026 57.4995L33.9997 57.5015L34.5625 58.3281ZM37.3281 55.5156L38.1748 56.0478L38.1814 56.0371L37.3281 55.5156ZM36.9531 46L36.1848 46.6402L36.1939 46.6508L36.9531 46ZM33.25 43.6094L32.9396 44.56L32.9484 44.5629L32.9573 44.5656L33.25 43.6094ZM27.7188 42.8125L27.6898 43.8121L27.697 43.8123L27.7043 43.8124L27.7188 42.8125ZM17.875 42.7188H16.875V43.7188H17.875V42.7188ZM17.875 30.25V29.25H16.875V30.25H17.875ZM33.1094 28.9375L33.5033 29.8566L33.5058 29.8556L33.1094 28.9375ZM36.2031 26.5938L37.0186 27.1725L37.0229 27.1664L37.0272 27.1603L36.2031 26.5938ZM36.1562 18.8594L35.3835 19.4941L35.3892 19.501L35.395 19.5078L36.1562 18.8594ZM33.4375 16.7969L33.0184 17.7048L33.0217 17.7063L33.4375 16.7969ZM15.2969 16.9375L15.5762 17.8977L15.5842 17.8953L15.2969 16.9375ZM5.3125 21.2969V22.2969H5.5864L5.82207 22.1573L5.3125 21.2969ZM3.57812 21.2969H2.57812V22.2969H3.57812V21.2969ZM3.57812 6.15625L3.20478 5.22856L2.57812 5.48075V6.15625H3.57812ZM14.0312 3.20312L14.2394 4.18125L14.246 4.1798L14.0312 3.20312ZM39.0156 2.92188L38.7861 3.89521L38.7948 3.89719L39.0156 2.92188ZM47.2188 5.96875L47.7317 5.11033L47.7296 5.10907L47.2188 5.96875ZM51.2031 29.6406L51.9864 30.2624L51.9894 30.2584L51.2031 29.6406ZM41.6875 35.4531L41.478 34.4753L40.6875 34.6447V35.4531H41.6875ZM41.6875 36.1094H40.6875V36.9815L41.5515 37.1001L41.6875 36.1094ZM50.9742 41.0405C52.4102 42.2714 53.5475 43.7017 54.3933 45.3349L56.1692 44.4151C55.2025 42.5483 53.9023 40.9161 52.2758 39.522L50.9742 41.0405ZM54.3933 45.3349C55.1993 46.8913 55.6406 49.043 55.6406 51.8594H57.6406C57.6406 48.8633 57.1757 46.3587 56.1692 44.4151L54.3933 45.3349ZM55.6406 51.8594C55.6406 55.003 55.0129 57.9217 53.7639 60.6278L55.5798 61.4659C56.9559 58.4845 57.6406 55.2783 57.6406 51.8594H55.6406ZM53.7601 60.6361C52.5532 63.3149 50.6806 65.6231 48.1158 67.5616L49.3217 69.1571C52.1319 67.0331 54.228 64.4663 55.5836 61.4577L53.7601 60.6361ZM48.1187 67.5594C45.6 69.4484 42.6158 70.9148 39.1517 71.948L39.7233 73.8645C43.3842 72.7727 46.5875 71.2078 49.3188 69.1594L48.1187 67.5594ZM39.1572 71.9463C35.7439 72.9431 31.5474 73.4531 26.5469 73.4531V75.4531C31.6713 75.4531 36.0686 74.9319 39.7178 73.8662L39.1572 71.9463ZM26.5469 73.4531C20.8136 73.4531 15.9201 73.0034 11.8537 72.1167L11.4276 74.0708C15.6737 74.9966 20.7177 75.4531 26.5469 75.4531V73.4531ZM11.8552 72.117C7.76553 71.2186 4.47389 70.2196 1.96042 69.1295L1.16458 70.9643C3.83861 72.1241 7.26572 73.1564 11.426 74.0705L11.8552 72.117ZM2.5625 70.0469V54.7188H0.5625V70.0469H2.5625ZM1.5625 55.7188H3.39062V53.7188H1.5625V55.7188ZM2.87321 55.5745C5.64162 57.2484 8.91965 58.6843 12.6958 59.8901L13.3042 57.9849C9.64285 56.8157 6.51463 55.4391 3.90804 53.863L2.87321 55.5745ZM12.6981 59.8908C16.5206 61.1013 20.046 61.7188 23.2656 61.7188V59.7188C20.2977 59.7188 16.9794 59.1487 13.3019 57.9842L12.6981 59.8908ZM23.2656 61.7188C25.1291 61.7188 27.1422 61.5742 29.3031 61.2882L29.0407 59.3055C26.9516 59.582 25.0272 59.7188 23.2656 59.7188V61.7188ZM29.3174 61.2862C31.5612 60.9563 33.5081 60.2558 35.1253 59.1547L33.9997 57.5015C32.6794 58.4005 31.0325 59.0125 29.0264 59.3075L29.3174 61.2862ZM35.1224 59.1567C36.3844 58.304 37.4075 57.2684 38.1748 56.0478L36.4815 54.9835C35.8737 55.9504 35.0531 56.7898 34.0026 57.4995L35.1224 59.1567ZM38.1814 56.0371C39.0057 54.6882 39.3594 52.8669 39.3594 50.6875H37.3594C37.3594 52.6956 37.0255 54.093 36.4748 54.9942L38.1814 56.0371ZM39.3594 50.6875C39.3594 48.5144 38.8584 46.6862 37.7124 45.3492L36.1939 46.6508C36.9228 47.5013 37.3594 48.7981 37.3594 50.6875H39.3594ZM37.7213 45.3598C36.6478 44.0716 35.2417 43.1733 33.5427 42.6532L32.9573 44.5656C34.3208 44.983 35.3834 45.6784 36.1849 46.6402L37.7213 45.3598ZM33.5604 42.6588C31.9074 42.119 29.9583 41.8449 27.7332 41.8126L27.7043 43.8124C29.7917 43.8426 31.5301 44.0997 32.9396 44.56L33.5604 42.6588ZM27.7477 41.8129C25.5834 41.7502 23.5736 41.7188 21.7188 41.7188V43.7188C23.5514 43.7188 25.5416 43.7498 27.6898 43.8121L27.7477 41.8129ZM21.7188 41.7188H17.875V43.7188H21.7188V41.7188ZM18.875 42.7188V30.25H16.875V42.7188H18.875ZM17.875 31.25H21.8594V29.25H17.875V31.25ZM21.8594 31.25C24.317 31.25 26.5019 31.1713 28.4112 31.0122L28.2451 29.0191C26.4044 29.1725 24.2768 29.25 21.8594 29.25V31.25ZM28.4112 31.0122C30.3613 30.8497 32.0663 30.4725 33.5033 29.8566L32.7155 28.0184C31.5275 28.5275 30.0449 28.8691 28.2451 29.0191L28.4112 31.0122ZM33.5058 29.8556C35.0055 29.208 36.2008 28.3249 37.0186 27.1725L35.3876 26.015C34.8305 26.8001 33.9632 27.4795 32.7129 28.0194L33.5058 29.8556ZM37.0272 27.1603C37.8777 25.9232 38.2344 24.2362 38.2344 22.2344H36.2344C36.2344 24.045 35.9036 25.2643 35.3791 26.0272L37.0272 27.1603ZM38.2344 22.2344C38.2344 20.656 37.8281 19.2799 36.9175 18.2109L35.395 19.5078C35.9219 20.1263 36.2344 21.0002 36.2344 22.2344H38.2344ZM36.929 18.2246C36.1077 17.2249 35.0766 16.4466 33.8533 15.8874L33.0217 17.7063C33.9859 18.1471 34.7673 18.7439 35.3835 19.4941L36.929 18.2246ZM33.8566 15.8889C32.5207 15.2724 30.9753 14.875 29.2375 14.6782L29.0125 16.6655C30.5872 16.8438 31.9168 17.1964 33.0184 17.7048L33.8566 15.8889ZM29.2375 14.6782C27.5575 14.488 26.0961 14.3906 24.8594 14.3906V16.3906C25.9977 16.3906 27.38 16.4807 29.0125 16.6655L29.2375 14.6782ZM24.8594 14.3906C21.8058 14.3906 18.5204 14.9264 15.0095 15.9797L15.5842 17.8953C18.9484 16.8861 22.038 16.3906 24.8594 16.3906V14.3906ZM15.0175 15.9773C11.4959 17.0018 8.09068 18.4893 4.80293 20.4364L5.82207 22.1573C8.97182 20.2919 12.2229 18.8732 15.5762 17.8977L15.0175 15.9773ZM5.3125 20.2969H3.57812V22.2969H5.3125V20.2969ZM4.57812 21.2969V6.15625H2.57812V21.2969H4.57812ZM3.95147 7.08394C6.43773 6.08337 9.85906 5.11321 14.2394 4.18123L13.8231 2.22502C9.39094 3.16804 5.84352 4.16663 3.20478 5.22856L3.95147 7.08394ZM14.246 4.1798C18.5814 3.22662 22.9781 2.75 27.4375 2.75V0.75C22.8344 0.75 18.2936 1.24213 13.8165 2.22645L14.246 4.1798ZM27.4375 2.75C31.7878 2.75 35.5671 3.13597 38.7861 3.89517L39.2452 1.94858C35.8392 1.14528 31.8997 0.75 27.4375 0.75V2.75ZM38.7948 3.89719C42.0388 4.63168 44.6672 5.61583 46.7079 6.82843L47.7296 5.10907C45.4578 3.75917 42.6174 2.71207 39.2365 1.94656L38.7948 3.89719ZM46.7058 6.82717C49.148 8.28656 50.9191 10.0302 52.0693 12.043L53.8057 11.0507C52.4559 8.68851 50.4145 6.71344 47.7317 5.11033L46.7058 6.82717ZM52.0693 12.043C53.2195 14.056 53.8125 16.4418 53.8125 19.2344H55.8125C55.8125 16.152 55.1555 13.4128 53.8057 11.0507L52.0693 12.043ZM53.8125 19.2344C53.8125 22.8841 52.6854 26.1355 50.4168 29.0228L51.9894 30.2584C54.5334 27.0207 55.8125 23.3347 55.8125 19.2344H53.8125ZM50.4199 29.0189C48.164 31.8607 45.1987 33.678 41.478 34.4753L41.897 36.4309C46.0513 35.5407 49.4297 33.483 51.9864 30.2624L50.4199 29.0189ZM40.6875 35.4531V36.1094H42.6875V35.4531H40.6875ZM41.5515 37.1001C43.0622 37.3074 44.6791 37.7246 46.4043 38.3602L47.0957 36.4835C45.2584 35.8066 43.5003 35.3488 41.8235 35.1187L41.5515 37.1001ZM46.4043 38.3602C48.0733 38.9751 49.5963 39.8678 50.9769 41.0428L52.2731 39.5197C50.7162 38.1947 48.9892 37.1811 47.0957 36.4835L46.4043 38.3602Z" fill="#C4C4C4"/>
</svg>
