<svg width="60" height="76" viewBox="0 0 60 76" fill="none" xmlns="http://www.w3.org/2000/svg">
<path d="M50.875 67.3281L50.2028 66.5877L50.2005 66.5898L50.875 67.3281ZM42.0625 72.625L41.7201 71.6855L41.7172 71.6865L42.0625 72.625ZM18.9062 72.7656L18.5874 73.7135L18.5977 73.7169L18.9062 72.7656ZM10.0469 67.5156L10.7354 66.7904L10.7337 66.7888L10.0469 67.5156ZM10.2812 12.9531L9.52867 12.2946L9.52748 12.296L10.2812 12.9531ZM22.1875 4.79688L21.8202 3.86677L21.8182 3.86758L22.1875 4.79688ZM52.4688 3.0625H53.4688V2.23648L52.6576 2.08049L52.4688 3.0625ZM52.4688 16.7969V17.7969H53.4688V16.7969H52.4688ZM50.6875 16.7969L50.2537 17.6979L50.4593 17.7969H50.6875V16.7969ZM46.375 15.4375L46.1183 16.404L46.1271 16.4063L46.136 16.4085L46.375 15.4375ZM19.4688 31.3281L18.4772 31.1983L18.2091 33.2455L19.9816 32.1866L19.4688 31.3281ZM27.0625 27.8594L27.3754 28.8092L27.382 28.8069L27.0625 27.8594ZM43.2812 27.4375L43.0203 28.4029L43.0236 28.4037L43.2812 27.4375ZM49.7969 30.4375L50.3697 29.6178L50.3634 29.6135L49.7969 30.4375ZM37.0469 59.7812L37.778 60.4636L37.7858 60.455L37.0469 59.7812ZM39.3438 56.0312L38.4166 55.6564L38.4125 55.6668L39.3438 56.0312ZM39.25 44.5L38.337 44.908L38.3403 44.9153L39.25 44.5ZM36.5312 40.9844L35.9173 41.7738L35.9278 41.7818L36.5312 40.9844ZM32.5469 39.2031L32.3278 40.1788L32.3374 40.181L32.3469 40.1829L32.5469 39.2031ZM19.375 40.3281L19.0239 39.3918L18.375 39.6351V40.3281H19.375ZM20.4062 54.1094L19.4484 54.3967L19.4506 54.4039L19.4529 54.4111L20.4062 54.1094ZM23.5 59.7812L24.2421 59.111L24.2291 59.0966L24.2156 59.0827L23.5 59.7812ZM26.5938 61.9375L26.2266 62.8677L26.2373 62.8719L26.248 62.8758L26.5938 61.9375ZM57.375 49.2344C57.375 52.7032 56.7422 55.947 55.4829 58.9754L57.3296 59.7433C58.6953 56.4592 59.375 52.953 59.375 49.2344H57.375ZM55.4829 58.9754C54.2231 62.0049 52.4618 64.5368 50.2028 66.5877L51.5472 68.0685C54.0382 65.807 55.9644 63.0263 57.3296 59.7433L55.4829 58.9754ZM50.2005 66.5898C47.7694 68.8109 44.9458 70.5097 41.7201 71.6855L42.4049 73.5645C45.8667 72.3028 48.9181 70.4704 51.5495 68.0664L50.2005 66.5898ZM41.7172 71.6865C38.5403 72.8554 34.7715 73.4531 30.3906 73.4531V75.4531C34.9472 75.4531 38.9597 74.8321 42.4078 73.5635L41.7172 71.6865ZM30.3906 73.4531C26.2926 73.4531 22.5703 72.9027 19.2148 71.8144L18.5977 73.7169C22.1797 74.8786 26.1136 75.4531 30.3906 75.4531V73.4531ZM19.2251 71.8178C15.9163 70.7049 13.0917 69.0275 10.7354 66.7904L9.35837 68.2409C11.9395 70.6913 15.0212 72.5139 18.5874 73.7134L19.2251 71.8178ZM10.7337 66.7888C8.02185 64.226 5.92943 60.8996 4.47424 56.7766L2.58826 57.4422C4.13307 61.8192 6.3844 65.4303 9.36002 68.2424L10.7337 66.7888ZM4.47424 56.7766C3.02164 52.6608 2.28125 47.7011 2.28125 41.875H0.28125C0.28125 47.8614 1.04086 53.0579 2.58826 57.4422L4.47424 56.7766ZM2.28125 41.875C2.28125 35.8244 2.97607 30.4855 4.34949 25.8464L2.43176 25.2786C0.992682 30.1395 0.28125 35.6756 0.28125 41.875H2.28125ZM4.34949 25.8464C5.71586 21.2311 7.94394 17.1559 11.035 13.6103L9.52748 12.296C6.24356 16.0628 3.87789 20.3939 2.43176 25.2786L4.34949 25.8464ZM11.0338 13.6116C13.9792 10.2455 17.8102 7.61266 22.5568 5.72617L21.8182 3.86758C16.8148 5.85609 12.7083 8.66071 9.52867 12.2946L11.0338 13.6116ZM22.5548 5.72698C27.3164 3.84658 33.014 2.89062 39.6719 2.89062V0.890625C32.8298 0.890625 26.8711 1.87217 21.8202 3.86677L22.5548 5.72698ZM39.6719 2.89062C41.9083 2.89062 44.3696 3.04386 47.0577 3.35283L47.2861 1.36592C44.5366 1.04989 41.9979 0.890625 39.6719 0.890625V2.89062ZM47.0577 3.35283C49.7854 3.66637 51.5116 3.89675 52.2799 4.04451L52.6576 2.08049C51.8009 1.91575 49.9958 1.67738 47.2861 1.36592L47.0577 3.35283ZM51.4688 3.0625V16.7969H53.4688V3.0625H51.4688ZM52.4688 15.7969H50.6875V17.7969H52.4688V15.7969ZM51.1213 15.8959C50.1765 15.4409 48.651 14.9679 46.614 14.4665L46.136 16.4085C48.1615 16.9071 49.511 17.3403 50.2537 17.6979L51.1213 15.8959ZM46.6317 14.471C44.5309 13.913 42.1607 13.6406 39.5312 13.6406V15.6406C42.0268 15.6406 44.2191 15.8995 46.1183 16.404L46.6317 14.471ZM39.5312 13.6406C33.3737 13.6406 28.4372 15.1492 24.8556 18.2956L26.1756 19.7981C29.2816 17.0695 33.6888 15.6406 39.5312 15.6406V13.6406ZM24.8556 18.2956C21.2963 21.4225 19.1899 25.7558 18.4772 31.1983L20.4603 31.458C21.1226 26.4005 23.0474 22.5463 26.1756 19.7981L24.8556 18.2956ZM19.9816 32.1866C22.3249 30.7867 24.7891 29.6611 27.3754 28.8092L26.7496 26.9096C24.0234 27.8076 21.4251 28.9945 18.9559 30.4697L19.9816 32.1866ZM27.382 28.8069C29.9576 27.9384 32.7394 27.5 35.7344 27.5V25.5C32.5418 25.5 29.5424 25.9678 26.743 26.9118L27.382 28.8069ZM35.7344 27.5C38.3767 27.5 40.8035 27.8037 43.0203 28.4029L43.5422 26.4721C41.134 25.8213 38.5296 25.5 35.7344 25.5V27.5ZM43.0236 28.4037C45.257 28.9993 47.3244 29.9512 49.2303 31.2615L50.3634 29.6135C48.2694 28.1738 45.993 27.1257 43.5389 26.4713L43.0236 28.4037ZM49.2241 31.2572C51.6721 32.9679 53.6459 35.275 55.1405 38.2045L56.922 37.2955C55.2916 34.1 53.1091 31.5321 50.3697 29.6178L49.2241 31.2572ZM55.1405 38.2045C56.6112 41.0871 57.375 44.7478 57.375 49.2344H59.375C59.375 44.5334 58.5763 40.5379 56.922 37.2955L55.1405 38.2045ZM37.7858 60.455C38.843 59.2956 39.6712 57.9387 40.275 56.3957L38.4125 55.6668C37.8913 56.9988 37.1883 58.1419 36.3079 59.1075L37.7858 60.455ZM40.2709 56.406C40.9324 54.7695 41.2344 52.6408 41.2344 50.0781H39.2344C39.2344 52.5155 38.9426 54.3555 38.4166 55.6565L40.2709 56.406ZM41.2344 50.0781C41.2344 47.7123 40.8958 45.6971 40.1597 44.0847L38.3403 44.9153C38.9167 46.1779 39.2344 47.8815 39.2344 50.0781H41.2344ZM40.163 44.0921C39.4457 42.4867 38.4395 41.1744 37.1347 40.187L35.9278 41.7818C36.9355 42.5443 37.7418 43.5758 38.337 44.9079L40.163 44.0921ZM37.1452 40.195C35.8873 39.2167 34.4141 38.5636 32.7468 38.2233L32.3469 40.1829C33.7421 40.4677 34.9252 41.0021 35.9173 41.7737L37.1452 40.195ZM32.7659 38.2274C31.1603 37.867 29.5086 37.6875 27.8125 37.6875V39.6875C29.3664 39.6875 30.871 39.8518 32.3278 40.1788L32.7659 38.2274ZM27.8125 37.6875C26.3617 37.6875 24.8556 37.8524 23.296 38.1773L23.704 40.1352C25.1444 39.8351 26.5133 39.6875 27.8125 39.6875V37.6875ZM23.296 38.1773C21.7531 38.4987 20.3282 38.9027 19.0239 39.3918L19.7261 41.2645C20.9218 40.8161 22.2469 40.4388 23.704 40.1352L23.296 38.1773ZM18.375 40.3281C18.375 40.617 18.3603 41.1136 18.3291 41.8316L20.3272 41.9184C20.3585 41.1989 20.375 40.6643 20.375 40.3281H18.375ZM18.3291 41.8316C18.297 42.5701 18.2812 43.4921 18.2812 44.5938H20.2812C20.2812 43.5079 20.2968 42.6174 20.3272 41.9184L18.3291 41.8316ZM18.2812 44.5938C18.2812 48.4934 18.6606 51.7708 19.4484 54.3967L21.3641 53.822C20.6519 51.448 20.2812 48.3816 20.2812 44.5938H18.2812ZM19.4529 54.4111C20.2631 56.9714 21.3585 59.019 22.7844 60.4798L24.2156 59.0827C23.079 57.9185 22.1119 56.1849 21.3596 53.8077L19.4529 54.4111ZM22.7579 60.4515C23.7338 61.532 24.8924 62.341 26.2266 62.8677L26.9609 61.0073C25.9201 60.5965 25.0162 59.968 24.2421 59.111L22.7579 60.4515ZM26.248 62.8758C27.5554 63.3575 28.9548 63.5938 30.4375 63.5938V61.5938C29.1702 61.5938 28.0071 61.3925 26.9395 60.9992L26.248 62.8758ZM30.4375 63.5938C31.6182 63.5938 32.8796 63.326 34.2105 62.827L33.5083 60.9543C32.3391 61.3927 31.3193 61.5938 30.4375 61.5938V63.5938ZM34.2105 62.827C35.5989 62.3063 36.7932 61.5186 37.7779 60.4636L36.3158 59.0989C35.5505 59.9189 34.6198 60.5375 33.5083 60.9543L34.2105 62.827Z" fill="black"/>
</svg>
