<svg width="58" height="74" viewBox="0 0 58 74" fill="none" xmlns="http://www.w3.org/2000/svg">
<path d="M56.4688 73V74H57.4688V73H56.4688ZM1.67188 73H0.671875V74H1.67188V73ZM1.67188 61.4688L1.0855 60.6587L0.671875 60.9581V61.4688H1.67188ZM14.2344 51.8125L13.6062 51.0344L13.6033 51.0367L14.2344 51.8125ZM24.3594 43L23.6642 42.2811L23.6612 42.2841L24.3594 43ZM31.7188 18.0156L31.066 18.7732L31.0723 18.7786L31.0786 18.7838L31.7188 18.0156ZM13.8125 17.1719L13.4634 16.2348L13.4604 16.2359L13.8125 17.1719ZM5 21.7188V22.7188H5.3071L5.56127 22.5464L5 21.7188ZM3.5 21.7188H2.5V22.7188H3.5V21.7188ZM3.5 6.20312L3.09986 5.28667L2.5 5.54858V6.20312H3.5ZM13.2969 3.29688L13.0792 2.32085L13.0777 2.32119L13.2969 3.29688ZM46.3438 7.375L45.7178 8.15484L45.721 8.15742L46.3438 7.375ZM49.9062 35.5L49.0334 35.012L49.0305 35.0173L49.9062 35.5ZM39.8281 47.7812L40.5064 48.5161L40.5095 48.5131L39.8281 47.7812ZM31.25 55.0469L31.8555 55.8427L31.861 55.8385L31.25 55.0469ZM25.1094 59.6406L24.5262 58.8283L22.0019 60.6406H25.1094V59.6406ZM56.4688 59.6406H57.4688V58.6406H56.4688V59.6406ZM56.4688 72H1.67188V74H56.4688V72ZM2.67188 73V61.4688H0.671875V73H2.67188ZM2.25825 62.2788C6.4616 59.2361 10.664 56.0058 14.8654 52.5883L13.6033 51.0367C9.42977 54.4317 5.25715 57.6389 1.0855 60.6587L2.25825 62.2788ZM14.8626 52.5905C19.0943 49.1738 22.4955 46.2147 25.0576 43.7159L23.6612 42.2841C21.1607 44.7228 17.812 47.6387 13.6062 51.0345L14.8626 52.5905ZM25.0545 43.7189C28.8637 40.0356 31.6245 36.7751 33.2846 33.9432L31.5592 32.9318C30.0318 35.5374 27.4175 38.6519 23.6643 42.2811L25.0545 43.7189ZM33.2846 33.9432C34.9514 31.0999 35.8125 28.2396 35.8125 25.375H33.8125C33.8125 27.8229 33.0799 30.3376 31.5592 32.9318L33.2846 33.9432ZM35.8125 25.375C35.8125 21.9522 34.6928 19.1923 32.3589 17.2474L31.0786 18.7838C32.8697 20.2765 33.8125 22.4228 33.8125 25.375H35.8125ZM32.3715 17.258C30.0939 15.2958 26.8873 14.3906 22.9062 14.3906V16.3906C26.6127 16.3906 29.2811 17.2355 31.066 18.7732L32.3715 17.258ZM22.9062 14.3906C19.8924 14.3906 16.7426 15.0131 13.4634 16.2348L14.1616 18.109C17.2574 16.9556 20.1701 16.3906 22.9062 16.3906V14.3906ZM13.4604 16.2359C10.2323 17.4504 7.2244 19.002 4.43873 20.8911L5.56127 22.5464C8.2131 20.748 11.0802 19.2683 14.1646 18.1078L13.4604 16.2359ZM5 20.7188H3.5V22.7188H5V20.7188ZM4.5 21.7188V6.20312H2.5V21.7188H4.5ZM3.90014 7.11958C6.03131 6.18907 9.22378 5.23677 13.5161 4.27256L13.0777 2.32119C8.74497 3.29448 5.40619 4.27968 3.09986 5.28667L3.90014 7.11958ZM13.5145 4.2729C17.7886 3.31969 22.0594 2.84375 26.3281 2.84375V0.84375C21.9094 0.84375 17.4927 1.33656 13.0792 2.32085L13.5145 4.2729ZM26.3281 2.84375C34.9568 2.84375 41.3697 4.66455 45.7178 8.15483L46.9697 6.59517C42.1303 2.71045 35.1995 0.84375 26.3281 0.84375V2.84375ZM45.721 8.15742C50.0401 11.5951 52.2344 16.4738 52.2344 22.9375H54.2344C54.2344 15.9637 51.8349 10.4674 46.9665 6.59258L45.721 8.15742ZM52.2344 22.9375C52.2344 27.1673 51.1715 31.1874 49.0334 35.012L50.7791 35.988C53.0785 31.8751 54.2344 27.5202 54.2344 22.9375H52.2344ZM49.0305 35.0173C46.909 38.8662 43.6267 42.8783 39.1467 47.0494L40.5095 48.5131C45.092 44.2467 48.5285 40.0713 50.782 35.9827L49.0305 35.0173ZM39.1498 47.0464C36.3263 49.6528 33.4893 52.0555 30.639 54.2552L31.861 55.8385C34.7607 53.6007 37.6425 51.1597 40.5064 48.5161L39.1498 47.0464ZM30.6445 54.251C27.7695 56.4385 25.7325 57.9622 24.5262 58.8283L25.6926 60.4529C26.9238 59.569 28.9805 58.0302 31.8555 55.8427L30.6445 54.251ZM25.1094 60.6406H56.4688V58.6406H25.1094V60.6406ZM55.4688 59.6406V73H57.4688V59.6406H55.4688Z" fill="#000000"/>
</svg>
