<svg width="57" height="74" viewBox="0 0 57 74" fill="none" xmlns="http://www.w3.org/2000/svg">
<path d="M53.9062 57.5L52.9909 57.0973L52.989 57.1016L53.9062 57.5ZM48 65.4688L48.6369 66.2397L48.6435 66.2342L48.65 66.2287L48 65.4688ZM38.0625 70.7656L38.3521 71.7228L38.3571 71.7212L38.0625 70.7656ZM25.3125 72.4531L25.3069 73.4531H25.3125V72.4531ZM11.1094 71.0938L11.3296 70.1183L11.3238 70.117L11.1094 71.0938ZM1.6875 68.2344H0.6875V68.8894L1.28791 69.1511L1.6875 68.2344ZM1.6875 52.8125V51.8125H0.6875V52.8125H1.6875ZM3.65625 52.8125L4.16657 51.9525L3.93062 51.8125H3.65625V52.8125ZM29.0156 58.0625L29.204 59.0447L29.2143 59.0426L29.0156 58.0625ZM34.5 55.5781L35.1622 56.3275L35.168 56.3223L35.1738 56.3171L34.5 55.5781ZM36.8906 52.625L36.0191 52.1347L36.0132 52.1452L36.0075 52.1558L36.8906 52.625ZM36.6094 43.8125L35.7539 44.3303L35.7619 44.3436L35.7704 44.3567L36.6094 43.8125ZM33.7969 40.9531L34.3248 40.1038L34.3183 40.0998L33.7969 40.9531ZM27.7031 38.9375L27.5599 39.9273L27.5727 39.929L27.7031 38.9375ZM13.125 39.1719L13.3049 40.1556L13.3143 40.1538L13.125 39.1719ZM6.375 40.5781V41.5781H6.49425L6.61015 41.5501L6.375 40.5781ZM4.3125 40.5781H3.3125V41.5781H4.3125V40.5781ZM4.3125 1.20312V0.203125H3.3125V1.20312H4.3125ZM53.9531 1.20312H54.9531V0.203125H53.9531V1.20312ZM53.9531 14.5625V15.5625H54.9531V14.5625H53.9531ZM21.2344 14.5625V13.5625H20.2344V14.5625H21.2344ZM21.2344 25.9531H20.2344V27.0197L21.2988 26.951L21.2344 25.9531ZM24.8906 25.8125L24.9119 26.8123L24.9221 26.8121L24.9323 26.8116L24.8906 25.8125ZM39.0938 26.8438L38.8512 27.814L38.863 27.8168L39.0938 26.8438ZM46.9219 29.8906L47.4391 29.0348L47.4364 29.0331L46.9219 29.8906ZM53.5781 36.7344L52.7058 37.2233L52.7081 37.2274L53.5781 36.7344ZM54.9688 47.375C54.9688 50.87 54.3067 54.1069 52.9909 57.0973L54.8216 57.9027C56.2558 54.6431 56.9688 51.13 56.9688 47.375H54.9688ZM52.989 57.1016C51.7065 60.0544 49.8298 62.5875 47.35 64.7088L48.65 66.2287C51.3577 63.9125 53.4185 61.1331 54.8235 57.8984L52.989 57.1016ZM47.3631 64.6978C44.5942 66.9851 41.3994 68.6903 37.7679 69.81L38.3571 71.7212C42.2256 70.5285 45.6558 68.7024 48.6369 66.2397L47.3631 64.6978ZM37.7729 69.8085C34.1668 70.8994 30.0173 71.4531 25.3125 71.4531V73.4531C30.1702 73.4531 34.5207 72.8819 38.3521 71.7228L37.7729 69.8085ZM25.3181 71.4531C19.7698 71.4221 15.1121 70.9724 11.3296 70.1183L10.8891 72.0692C14.8566 72.9651 19.6677 73.4216 25.3069 73.4531L25.3181 71.4531ZM11.3238 70.117C7.5164 69.2812 4.44397 68.345 2.08709 67.3177L1.28791 69.1511C3.80603 70.2487 7.01485 71.2188 10.895 72.0705L11.3238 70.117ZM2.6875 68.2344V52.8125H0.6875V68.2344H2.6875ZM1.6875 53.8125H3.65625V51.8125H1.6875V53.8125ZM3.14593 53.6725C6.05138 55.3966 9.17656 56.8311 12.5194 57.9772L13.1681 56.0853C9.94844 54.9814 6.94862 53.6034 4.16657 51.9525L3.14593 53.6725ZM12.5194 57.9772C15.898 59.1356 19.2731 59.7188 22.6406 59.7188V57.7188C19.5082 57.7188 16.352 57.1769 13.1681 56.0853L12.5194 57.9772ZM22.6406 59.7188C24.6826 59.7188 26.8714 59.492 29.204 59.0446L28.8273 57.0804C26.5974 57.508 24.5361 57.7188 22.6406 57.7188V59.7188ZM29.2143 59.0426C31.6461 58.5496 33.6517 57.6623 35.1622 56.3275L33.8378 54.8288C32.6608 55.8689 31.0102 56.6379 28.817 57.0824L29.2143 59.0426ZM35.1738 56.3171C36.2992 55.291 37.1764 54.2186 37.7737 53.0942L36.0075 52.1558C35.5424 53.0314 34.8258 53.9278 33.8262 54.8392L35.1738 56.3171ZM37.7622 53.1153C38.4529 51.8873 38.7344 50.1294 38.7344 47.9844H36.7344C36.7344 50.0268 36.4533 51.3627 36.0191 52.1347L37.7622 53.1153ZM38.7344 47.9844C38.7344 46.2014 38.3211 44.6138 37.4483 43.2683L35.7704 44.3567C36.3977 45.3237 36.7344 46.5173 36.7344 47.9844H38.7344ZM37.4649 43.2947C36.6662 41.9752 35.6175 40.9074 34.3248 40.1038L33.2689 41.8024C34.2887 42.4363 35.115 43.2748 35.7539 44.3303L37.4649 43.2947ZM34.3183 40.0998C32.4892 38.982 30.3185 38.273 27.8336 37.946L27.5727 39.929C29.8378 40.227 31.7296 40.8617 33.2754 41.8064L34.3183 40.0998ZM27.8464 37.9478C25.4346 37.5987 23.2295 37.4219 21.2344 37.4219V39.4219C23.1142 39.4219 25.2216 39.5888 27.5599 39.9272L27.8464 37.9478ZM21.2344 37.4219C18.3624 37.4219 15.5957 37.6772 12.9357 38.19L13.3143 40.1538C15.8418 39.6666 18.4813 39.4219 21.2344 39.4219V37.4219ZM12.9451 38.1882C10.3693 38.6594 8.10018 39.1319 6.13985 39.6062L6.61015 41.5501C8.52482 41.0869 10.7557 40.6219 13.3049 40.1556L12.9451 38.1882ZM6.375 39.5781H4.3125V41.5781H6.375V39.5781ZM5.3125 40.5781V1.20312H3.3125V40.5781H5.3125ZM4.3125 2.20312H53.9531V0.203125H4.3125V2.20312ZM52.9531 1.20312V14.5625H54.9531V1.20312H52.9531ZM53.9531 13.5625H21.2344V15.5625H53.9531V13.5625ZM20.2344 14.5625V25.9531H22.2344V14.5625H20.2344ZM21.2988 26.951C22.2479 26.8898 23.4511 26.8434 24.9119 26.8123L24.8694 24.8127C23.3927 24.8441 22.1584 24.8914 21.17 24.9552L21.2988 26.951ZM24.9323 26.8116C26.4226 26.7495 27.7207 26.7188 28.8281 26.7188V24.7188C27.6856 24.7188 26.3586 24.7505 24.849 24.8134L24.9323 26.8116ZM28.8281 26.7188C32.609 26.7188 35.947 27.0878 38.8512 27.8139L39.3363 25.8736C36.2405 25.0997 32.7348 24.7188 28.8281 24.7188V26.7188ZM38.863 27.8168C41.8156 28.5169 44.3249 29.4987 46.4074 30.7481L47.4364 29.0331C45.1438 27.6576 42.4344 26.6081 39.3245 25.8707L38.863 27.8168ZM46.4046 30.7465C49.1032 32.3775 51.1983 34.5335 52.7058 37.2233L54.4505 36.2455C52.7704 33.2477 50.428 30.8413 47.4391 29.0348L46.4046 30.7465ZM52.7081 37.2274C54.1934 39.8485 54.9688 43.2123 54.9688 47.375H56.9688C56.9688 42.9752 56.1503 39.2452 54.4481 36.2414L52.7081 37.2274Z" fill="#C4C4C4"/>
</svg>
