<svg width="153" height="219" viewBox="0 0 153 219" fill="none" xmlns="http://www.w3.org/2000/svg">
<rect width="153" height="219" />
<mask id="mask0" mask-type="alpha" maskUnits="userSpaceOnUse" x="-28" y="0" width="181" height="219">
<path d="M152.861 69.7324C152.861 79.498 151.152 89.0684 147.734 98.4434C144.316 107.721 139.434 115.533 133.086 121.881C124.395 130.475 114.678 136.969 103.936 141.363C93.291 145.758 80.0098 147.955 64.0918 147.955H29.082V219H-27.168V0.884766H65.4102C79.2773 0.884766 90.9473 2.10547 100.42 4.54688C109.99 6.89062 118.438 10.4551 125.762 15.2402C134.551 21.002 141.24 28.375 145.83 37.3594C150.518 46.3438 152.861 57.1348 152.861 69.7324ZM94.707 71.0508C94.707 64.8984 93.0469 59.625 89.7266 55.2305C86.4062 50.7383 82.5488 47.6133 78.1543 45.8555C72.2949 43.5117 66.582 42.2422 61.0156 42.0469C55.4492 41.7539 48.0273 41.6074 38.75 41.6074H29.082V106.939H45.1953C54.7656 106.939 62.627 106.354 68.7793 105.182C75.0293 104.01 80.2539 101.666 84.4531 98.1504C88.0664 95.0254 90.6543 91.3145 92.2168 87.0176C93.877 82.623 94.707 77.3008 94.707 71.0508Z" fill="#C4C4C4" fill-opacity="0.5"/>
</mask>
<g mask="url(#mask0)">
<rect y="-42" width="205" height="298" fill="white" fill-opacity="0.5"/>
</g>
</svg>
