<svg width="153" height="279" viewBox="0 0 153 279" fill="none" xmlns="http://www.w3.org/2000/svg">
<rect width="153" height="279" />
<mask id="mask0" mask-type="alpha" maskUnits="userSpaceOnUse" x="-28" y="60" width="181" height="219">
<path d="M152.861 129.732C152.861 139.498 151.152 149.068 147.734 158.443C144.316 167.721 139.434 175.533 133.086 181.881C124.395 190.475 114.678 196.969 103.936 201.363C93.291 205.758 80.0098 207.955 64.0918 207.955H29.082V279H-27.168V60.8848H65.4102C79.2773 60.8848 90.9473 62.1055 100.42 64.5469C109.99 66.8906 118.438 70.4551 125.762 75.2402C134.551 81.002 141.24 88.375 145.83 97.3594C150.518 106.344 152.861 117.135 152.861 129.732ZM94.707 131.051C94.707 124.898 93.0469 119.625 89.7266 115.23C86.4062 110.738 82.5488 107.613 78.1543 105.855C72.2949 103.512 66.582 102.242 61.0156 102.047C55.4492 101.754 48.0273 101.607 38.75 101.607H29.082V166.939H45.1953C54.7656 166.939 62.627 166.354 68.7793 165.182C75.0293 164.01 80.2539 161.666 84.4531 158.15C88.0664 155.025 90.6543 151.314 92.2168 147.018C93.877 142.623 94.707 137.301 94.707 131.051Z" fill="#C4C4C4" fill-opacity="0.5"/>
</mask>
<g mask="url(#mask0)">
<rect y="18" width="205" height="298" fill="white" fill-opacity="0.5"/>
</g>
<mask id="mask1" mask-type="alpha" maskUnits="userSpaceOnUse" x="-28" y="60" width="181" height="219">
<path d="M152.861 129.732C152.861 139.498 151.152 149.068 147.734 158.443C144.316 167.721 139.434 175.533 133.086 181.881C124.395 190.475 114.678 196.969 103.936 201.363C93.291 205.758 80.0098 207.955 64.0918 207.955H29.082V279H-27.168V60.8848H65.4102C79.2773 60.8848 90.9473 62.1055 100.42 64.5469C109.99 66.8906 118.438 70.4551 125.762 75.2402C134.551 81.002 141.24 88.375 145.83 97.3594C150.518 106.344 152.861 117.135 152.861 129.732ZM94.707 131.051C94.707 124.898 93.0469 119.625 89.7266 115.23C86.4062 110.738 82.5488 107.613 78.1543 105.855C72.2949 103.512 66.582 102.242 61.0156 102.047C55.4492 101.754 48.0273 101.607 38.75 101.607H29.082V166.939H45.1953C54.7656 166.939 62.627 166.354 68.7793 165.182C75.0293 164.01 80.2539 161.666 84.4531 158.15C88.0664 155.025 90.6543 151.314 92.2168 147.018C93.877 142.623 94.707 137.301 94.707 131.051Z" fill="#C4C4C4" fill-opacity="0.5"/>
</mask>
<g mask="url(#mask1)">
<rect y="18" width="205" height="298" fill="white" fill-opacity="0.5"/>
</g>
<path d="M36.7305 3.92578H28.7031V7.17188H36.1445V10.5469H28.7031V18H24.2266V0.550781H36.7305V3.92578ZM52.457 18H39.8359V0.550781H52.457V3.92578H44.3125V6.9375H51.8711V10.3125H44.3125V14.625H52.457V18ZM70.2109 12.5156C70.2109 14.2344 69.4805 15.6328 68.0195 16.7109C66.5664 17.7812 64.5898 18.3164 62.0898 18.3164C60.6445 18.3164 59.3828 18.1914 58.3047 17.9414C57.2344 17.6836 56.2305 17.3594 55.293 16.9688V12.7852H55.7852C56.7148 13.5273 57.7539 14.0977 58.9023 14.4961C60.0586 14.8945 61.168 15.0938 62.2305 15.0938C62.5039 15.0938 62.8633 15.0703 63.3086 15.0234C63.7539 14.9766 64.1172 14.8984 64.3984 14.7891C64.7422 14.6484 65.0234 14.4727 65.2422 14.2617C65.4688 14.0508 65.582 13.7383 65.582 13.3242C65.582 12.9414 65.418 12.6133 65.0898 12.3398C64.7695 12.0586 64.2969 11.8438 63.6719 11.6953C63.0156 11.5391 62.3203 11.3945 61.5859 11.2617C60.8594 11.1211 60.1758 10.9453 59.5352 10.7344C58.0664 10.2578 57.0078 9.61328 56.3594 8.80078C55.7188 7.98047 55.3984 6.96484 55.3984 5.75391C55.3984 4.12891 56.125 2.80469 57.5781 1.78125C59.0391 0.75 60.9141 0.234375 63.2031 0.234375C64.3516 0.234375 65.4844 0.347656 66.6016 0.574219C67.7266 0.792969 68.6992 1.07031 69.5195 1.40625V5.42578H69.0391C68.3359 4.86328 67.4727 4.39453 66.4492 4.01953C65.4336 3.63672 64.3945 3.44531 63.332 3.44531C62.957 3.44531 62.582 3.47266 62.207 3.52734C61.8398 3.57422 61.4844 3.66797 61.1406 3.80859C60.8359 3.92578 60.5742 4.10547 60.3555 4.34766C60.1367 4.58203 60.0273 4.85156 60.0273 5.15625C60.0273 5.61719 60.2031 5.97266 60.5547 6.22266C60.9062 6.46484 61.5703 6.6875 62.5469 6.89062C63.1875 7.02344 63.8008 7.15234 64.3867 7.27734C64.9805 7.40234 65.6172 7.57422 66.2969 7.79297C67.6328 8.23047 68.6172 8.82812 69.25 9.58594C69.8906 10.3359 70.2109 11.3125 70.2109 12.5156ZM86.957 3.92578H81.5078V18H77.0078V3.92578H71.5586V0.550781H86.957V3.92578ZM99.0977 18H88.8789V14.9062H91.7383V3.64453H88.8789V0.550781H99.0977V3.64453H96.2383V14.9062H99.0977V18ZM118.586 0.550781L112.223 18H107.184L100.82 0.550781H105.543L109.762 12.8086L113.98 0.550781H118.586ZM137.219 18H132.566L131.359 14.4727H124.891L123.684 18H119.148L125.594 0.550781H130.773L137.219 18ZM130.27 11.2734L128.125 5.01562L125.98 11.2734H130.27ZM152.312 18H139.727V0.550781H144.227V14.625H152.312V18ZM38.6289 35.0586C38.6289 35.8398 38.4922 36.6055 38.2188 37.3555C37.9453 38.0977 37.5547 38.7227 37.0469 39.2305C36.3516 39.918 35.5742 40.4375 34.7148 40.7891C33.8633 41.1406 32.8008 41.3164 31.5273 41.3164H28.7266V47H24.2266V29.5508H31.6328C32.7422 29.5508 33.6758 29.6484 34.4336 29.8438C35.1992 30.0312 35.875 30.3164 36.4609 30.6992C37.1641 31.1602 37.6992 31.75 38.0664 32.4688C38.4414 33.1875 38.6289 34.0508 38.6289 35.0586ZM33.9766 35.1641C33.9766 34.6719 33.8438 34.25 33.5781 33.8984C33.3125 33.5391 33.0039 33.2891 32.6523 33.1484C32.1836 32.9609 31.7266 32.8594 31.2812 32.8438C30.8359 32.8203 30.2422 32.8086 29.5 32.8086H28.7266V38.0352H30.0156C30.7812 38.0352 31.4102 37.9883 31.9023 37.8945C32.4023 37.8008 32.8203 37.6133 33.1562 37.332C33.4453 37.082 33.6523 36.7852 33.7773 36.4414C33.9102 36.0898 33.9766 35.6641 33.9766 35.1641ZM57.9531 47H53.3008L52.0938 43.4727H45.625L44.418 47H39.8828L46.3281 29.5508H51.5078L57.9531 47ZM51.0039 40.2734L48.8594 34.0156L46.7148 40.2734H51.0039ZM74.4297 41.5156C74.4297 43.2344 73.6992 44.6328 72.2383 45.7109C70.7852 46.7812 68.8086 47.3164 66.3086 47.3164C64.8633 47.3164 63.6016 47.1914 62.5234 46.9414C61.4531 46.6836 60.4492 46.3594 59.5117 45.9688V41.7852H60.0039C60.9336 42.5273 61.9727 43.0977 63.1211 43.4961C64.2773 43.8945 65.3867 44.0938 66.4492 44.0938C66.7227 44.0938 67.082 44.0703 67.5273 44.0234C67.9727 43.9766 68.3359 43.8984 68.6172 43.7891C68.9609 43.6484 69.2422 43.4727 69.4609 43.2617C69.6875 43.0508 69.8008 42.7383 69.8008 42.3242C69.8008 41.9414 69.6367 41.6133 69.3086 41.3398C68.9883 41.0586 68.5156 40.8438 67.8906 40.6953C67.2344 40.5391 66.5391 40.3945 65.8047 40.2617C65.0781 40.1211 64.3945 39.9453 63.7539 39.7344C62.2852 39.2578 61.2266 38.6133 60.5781 37.8008C59.9375 36.9805 59.6172 35.9648 59.6172 34.7539C59.6172 33.1289 60.3438 31.8047 61.7969 30.7812C63.2578 29.75 65.1328 29.2344 67.4219 29.2344C68.5703 29.2344 69.7031 29.3477 70.8203 29.5742C71.9453 29.793 72.918 30.0703 73.7383 30.4062V34.4258H73.2578C72.5547 33.8633 71.6914 33.3945 70.668 33.0195C69.6523 32.6367 68.6133 32.4453 67.5508 32.4453C67.1758 32.4453 66.8008 32.4727 66.4258 32.5273C66.0586 32.5742 65.7031 32.668 65.3594 32.8086C65.0547 32.9258 64.793 33.1055 64.5742 33.3477C64.3555 33.582 64.2461 33.8516 64.2461 34.1562C64.2461 34.6172 64.4219 34.9727 64.7734 35.2227C65.125 35.4648 65.7891 35.6875 66.7656 35.8906C67.4062 36.0234 68.0195 36.1523 68.6055 36.2773C69.1992 36.4023 69.8359 36.5742 70.5156 36.793C71.8516 37.2305 72.8359 37.8281 73.4688 38.5859C74.1094 39.3359 74.4297 40.3125 74.4297 41.5156ZM91.4922 41.5156C91.4922 43.2344 90.7617 44.6328 89.3008 45.7109C87.8477 46.7812 85.8711 47.3164 83.3711 47.3164C81.9258 47.3164 80.6641 47.1914 79.5859 46.9414C78.5156 46.6836 77.5117 46.3594 76.5742 45.9688V41.7852H77.0664C77.9961 42.5273 79.0352 43.0977 80.1836 43.4961C81.3398 43.8945 82.4492 44.0938 83.5117 44.0938C83.7852 44.0938 84.1445 44.0703 84.5898 44.0234C85.0352 43.9766 85.3984 43.8984 85.6797 43.7891C86.0234 43.6484 86.3047 43.4727 86.5234 43.2617C86.75 43.0508 86.8633 42.7383 86.8633 42.3242C86.8633 41.9414 86.6992 41.6133 86.3711 41.3398C86.0508 41.0586 85.5781 40.8438 84.9531 40.6953C84.2969 40.5391 83.6016 40.3945 82.8672 40.2617C82.1406 40.1211 81.457 39.9453 80.8164 39.7344C79.3477 39.2578 78.2891 38.6133 77.6406 37.8008C77 36.9805 76.6797 35.9648 76.6797 34.7539C76.6797 33.1289 77.4062 31.8047 78.8594 30.7812C80.3203 29.75 82.1953 29.2344 84.4844 29.2344C85.6328 29.2344 86.7656 29.3477 87.8828 29.5742C89.0078 29.793 89.9805 30.0703 90.8008 30.4062V34.4258H90.3203C89.6172 33.8633 88.7539 33.3945 87.7305 33.0195C86.7148 32.6367 85.6758 32.4453 84.6133 32.4453C84.2383 32.4453 83.8633 32.4727 83.4883 32.5273C83.1211 32.5742 82.7656 32.668 82.4219 32.8086C82.1172 32.9258 81.8555 33.1055 81.6367 33.3477C81.418 33.582 81.3086 33.8516 81.3086 34.1562C81.3086 34.6172 81.4844 34.9727 81.8359 35.2227C82.1875 35.4648 82.8516 35.6875 83.8281 35.8906C84.4688 36.0234 85.082 36.1523 85.668 36.2773C86.2617 36.4023 86.8984 36.5742 87.5781 36.793C88.9141 37.2305 89.8984 37.8281 90.5312 38.5859C91.1719 39.3359 91.4922 40.3125 91.4922 41.5156Z" fill="black"/>
</svg>
