<svg width="432" height="243" viewBox="0 0 432 243" fill="none" xmlns="http://www.w3.org/2000/svg">
<mask id="mask0" mask-type="alpha" maskUnits="userSpaceOnUse" x="-71" y="23" width="223" height="219">
<path d="M151.586 23.8848L72.0449 242H9.05664L-70.4844 23.8848H-11.4512L41.2832 177.107L94.0176 23.8848H151.586Z" fill="#f9dc40" fill-opacity="1"/>
</mask>
<g mask="url(#mask0)">
<rect x="1" y="-23.3808" width="205" height="266.159" rx="10" fill="#f9dc40" fill-opacity="1"/>
</g>
<path d="M276.047 27.5508L269.684 45H264.645L258.281 27.5508H263.004L267.223 39.8086L271.441 27.5508H276.047ZM287.988 45H277.77V41.9062H280.629V30.6445H277.77V27.5508H287.988V30.6445H285.129V41.9062H287.988V45ZM306.059 33.0586C306.059 33.8398 305.922 34.6055 305.648 35.3555C305.375 36.0977 304.984 36.7227 304.477 37.2305C303.781 37.918 303.004 38.4375 302.145 38.7891C301.293 39.1406 300.23 39.3164 298.957 39.3164H296.156V45H291.656V27.5508H299.062C300.172 27.5508 301.105 27.6484 301.863 27.8438C302.629 28.0312 303.305 28.3164 303.891 28.6992C304.594 29.1602 305.129 29.75 305.496 30.4688C305.871 31.1875 306.059 32.0508 306.059 33.0586ZM301.406 33.1641C301.406 32.6719 301.273 32.25 301.008 31.8984C300.742 31.5391 300.434 31.2891 300.082 31.1484C299.613 30.9609 299.156 30.8594 298.711 30.8438C298.266 30.8203 297.672 30.8086 296.93 30.8086H296.156V36.0352H297.445C298.211 36.0352 298.84 35.9883 299.332 35.8945C299.832 35.8008 300.25 35.6133 300.586 35.332C300.875 35.082 301.082 34.7852 301.207 34.4414C301.34 34.0898 301.406 33.6641 301.406 33.1641ZM273.879 59.9258H268.43V74H263.93V59.9258H258.48V56.5508H273.879V59.9258ZM293.555 65.2812C293.555 68.0625 292.758 70.2734 291.164 71.9141C289.57 73.5469 287.367 74.3633 284.555 74.3633C281.75 74.3633 279.551 73.5469 277.957 71.9141C276.363 70.2734 275.566 68.0625 275.566 65.2812C275.566 62.4766 276.363 60.2617 277.957 58.6367C279.551 57.0039 281.75 56.1875 284.555 56.1875C287.352 56.1875 289.551 57.0039 291.152 58.6367C292.754 60.2617 293.555 62.4766 293.555 65.2812ZM287.59 69.6992C288.027 69.168 288.352 68.543 288.562 67.8242C288.773 67.0977 288.879 66.2461 288.879 65.2695C288.879 64.2227 288.758 63.332 288.516 62.5977C288.273 61.8633 287.957 61.2695 287.566 60.8164C287.168 60.3477 286.707 60.0078 286.184 59.7969C285.668 59.5859 285.129 59.4805 284.566 59.4805C283.996 59.4805 283.457 59.582 282.949 59.7852C282.449 59.9883 281.988 60.3242 281.566 60.793C281.176 61.2305 280.855 61.8359 280.605 62.6094C280.363 63.375 280.242 64.2656 280.242 65.2812C280.242 66.3203 280.359 67.207 280.594 67.9414C280.836 68.668 281.152 69.2617 281.543 69.7227C281.934 70.1836 282.391 70.5234 282.914 70.7422C283.438 70.9609 283.988 71.0703 284.566 71.0703C285.145 71.0703 285.695 70.9609 286.219 70.7422C286.742 70.5156 287.199 70.168 287.59 69.6992ZM312.281 67.6836C312.281 69.8398 311.625 71.4922 310.312 72.6406C309 73.7891 307.066 74.3633 304.512 74.3633C301.957 74.3633 300.023 73.7891 298.711 72.6406C297.406 71.4922 296.754 69.8438 296.754 67.6953V56.5508H301.277V67.4375C301.277 68.6484 301.531 69.5508 302.039 70.1445C302.547 70.7383 303.371 71.0352 304.512 71.0352C305.637 71.0352 306.457 70.75 306.973 70.1797C307.496 69.6094 307.758 68.6953 307.758 67.4375V56.5508H312.281V67.6836ZM326.285 61.8945C326.285 61.457 326.195 61.082 326.016 60.7695C325.836 60.457 325.527 60.2109 325.09 60.0312C324.785 59.9062 324.43 59.832 324.023 59.8086C323.617 59.7773 323.145 59.7617 322.605 59.7617H320.977V64.4609H322.359C323.078 64.4609 323.68 64.4258 324.164 64.3555C324.648 64.2852 325.055 64.125 325.383 63.875C325.695 63.6328 325.922 63.3672 326.062 63.0781C326.211 62.7812 326.285 62.3867 326.285 61.8945ZM333.305 74H327.809L323.051 67.6016H320.977V74H316.5V56.5508H324.047C325.078 56.5508 325.965 56.6094 326.707 56.7266C327.449 56.8438 328.145 57.0977 328.793 57.4883C329.449 57.8789 329.969 58.3867 330.352 59.0117C330.742 59.6289 330.938 60.4062 330.938 61.3438C330.938 62.6328 330.637 63.6836 330.035 64.4961C329.441 65.3086 328.59 65.9844 327.48 66.5234L333.305 74Z" fill="#000000"/>
<rect x="431.5" y="0.500015" width="242" height="431" rx="9.5" transform="rotate(90 431.5 0.500015)" stroke="none" stroke-opacity="0.5"/>
</svg>
