<svg width="368" height="241" viewBox="0 0 368 241" fill="none" xmlns="http://www.w3.org/2000/svg">
<mask id="mask0" mask-type="alpha" maskUnits="userSpaceOnUse" x="-60" y="11" width="188" height="227">
<path d="M127.441 165.445C127.441 186.93 118.311 204.41 100.049 217.887C81.8848 231.266 57.1777 237.955 25.9277 237.955C7.86133 237.955 -7.91016 236.393 -21.3867 233.268C-34.7656 230.045 -47.3145 225.992 -59.0332 221.109V168.814H-52.8809C-41.2598 178.092 -28.2715 185.221 -13.916 190.201C0.537109 195.182 14.4043 197.672 27.6855 197.672C31.1035 197.672 35.5957 197.379 41.1621 196.793C46.7285 196.207 51.2695 195.23 54.7852 193.863C59.082 192.105 62.5977 189.908 65.332 187.271C68.1641 184.635 69.5801 180.729 69.5801 175.553C69.5801 170.768 67.5293 166.666 63.4277 163.248C59.4238 159.732 53.5156 157.047 45.7031 155.191C37.5 153.238 28.8086 151.432 19.6289 149.771C10.5469 148.014 2.00195 145.816 -6.00586 143.18C-24.3652 137.223 -37.5977 129.166 -45.7031 119.01C-53.7109 108.756 -57.7148 96.0605 -57.7148 80.9238C-57.7148 60.6113 -48.6328 44.0586 -30.4688 31.2656C-12.207 18.375 11.2305 11.9297 39.8438 11.9297C54.1992 11.9297 68.3594 13.3457 82.3242 16.1777C96.3867 18.9121 108.545 22.3789 118.799 26.5781V76.8223H112.793C104.004 69.791 93.2129 63.9316 80.4199 59.2441C67.7246 54.459 54.7363 52.0664 41.4551 52.0664C36.7676 52.0664 32.0801 52.4082 27.3926 53.0918C22.8027 53.6777 18.3594 54.8496 14.0625 56.6074C10.2539 58.0723 6.98242 60.3184 4.24805 63.3457C1.51367 66.2754 0.146484 69.6445 0.146484 73.4531C0.146484 79.2148 2.34375 83.6582 6.73828 86.7832C11.1328 89.8105 19.4336 92.5938 31.6406 95.1328C39.6484 96.793 47.3145 98.4043 54.6387 99.9668C62.0605 101.529 70.0195 103.678 78.5156 106.412C95.2148 111.881 107.52 119.352 115.43 128.824C123.438 138.199 127.441 150.406 127.441 165.445Z" fill="#E5E5E5" fill-opacity="0.5"/>
</mask>
<g mask="url(#mask0)">
<rect y="-27" width="205" height="298" fill="#C4C4C4" fill-opacity="0.5"/>
</g>
</svg>
