<svg width="195" height="297" viewBox="0 0 195 297" fill="none" xmlns="http://www.w3.org/2000/svg">
<mask id="mask0" mask-type="alpha" maskUnits="userSpaceOnUse" x="-54" y="0" width="249" height="303">
<path d="M194.922 205.594C194.922 234.24 182.747 257.547 158.398 275.516C134.18 293.354 101.237 302.273 59.5703 302.273C35.4818 302.273 14.4531 300.19 -3.51562 296.023C-21.3542 291.727 -38.0859 286.323 -53.7109 279.812V210.086H-45.5078C-30.013 222.456 -12.6953 231.961 6.44531 238.602C25.7161 245.242 44.2057 248.562 61.9141 248.562C66.4714 248.562 72.4609 248.172 79.8828 247.391C87.3047 246.609 93.3594 245.307 98.0469 243.484C103.776 241.141 108.464 238.211 112.109 234.695C115.885 231.18 117.773 225.971 117.773 219.07C117.773 212.69 115.039 207.221 109.57 202.664C104.232 197.977 96.3542 194.396 85.9375 191.922C75 189.318 63.4115 186.909 51.1719 184.695C39.0625 182.352 27.6693 179.422 16.9922 175.906C-7.48698 167.964 -25.1302 157.221 -35.9375 143.68C-46.6146 130.008 -51.9531 113.081 -51.9531 92.8984C-51.9531 65.8151 -39.8438 43.7448 -15.625 26.6875C8.72396 9.5 39.974 0.90625 78.125 0.90625C97.2656 0.90625 116.146 2.79427 134.766 6.57031C153.516 10.2161 169.727 14.8385 183.398 20.4375V87.4297H175.391C163.672 78.0547 149.284 70.2422 132.227 63.9922C115.299 57.612 97.9818 54.4219 80.2734 54.4219C74.0234 54.4219 67.7734 54.8776 61.5234 55.7891C55.4036 56.5703 49.4792 58.1328 43.75 60.4766C38.6719 62.4297 34.3099 65.4245 30.6641 69.4609C27.0182 73.3672 25.1953 77.8594 25.1953 82.9375C25.1953 90.6198 28.125 96.5443 33.9844 100.711C39.8438 104.747 50.9115 108.458 67.1875 111.844C77.8646 114.057 88.0859 116.206 97.8516 118.289C107.747 120.372 118.359 123.237 129.688 126.883C151.953 134.174 168.359 144.135 178.906 156.766C189.583 169.266 194.922 185.542 194.922 205.594Z" fill="#0B0907"/>
</mask>
<g mask="url(#mask0)">
<rect y="-67" width="247" height="364" fill="#E5E5E5" fill-opacity="0.5"/>
</g>
</svg>
