<svg width="389" height="222" viewBox="0 0 389 222" fill="none" xmlns="http://www.w3.org/2000/svg">
<rect width="389" height="222"/>
<mask id="mask0" mask-type="alpha" maskUnits="userSpaceOnUse" x="-7" y="9" width="181" height="219">
<path d="M173.861 78.7324C173.861 88.498 172.152 98.0684 168.734 107.443C165.316 116.721 160.434 124.533 154.086 130.881C145.395 139.475 135.678 145.969 124.936 150.363C114.291 154.758 101.01 156.955 85.0918 156.955H50.082V228H-6.16797V9.88477H86.4102C100.277 9.88477 111.947 11.1055 121.42 13.5469C130.99 15.8906 139.438 19.4551 146.762 24.2402C155.551 30.002 162.24 37.375 166.83 46.3594C171.518 55.3438 173.861 66.1348 173.861 78.7324ZM115.707 80.0508C115.707 73.8984 114.047 68.625 110.727 64.2305C107.406 59.7383 103.549 56.6133 99.1543 54.8555C93.2949 52.5117 87.582 51.2422 82.0156 51.0469C76.4492 50.7539 69.0273 50.6074 59.75 50.6074H50.082V115.939H66.1953C75.7656 115.939 83.627 115.354 89.7793 114.182C96.0293 113.01 101.254 110.666 105.453 107.15C109.066 104.025 111.654 100.314 113.217 96.0176C114.877 91.623 115.707 86.3008 115.707 80.0508Z" fill="white" fill-opacity="0.5"/>
</mask>
<g mask="url(#mask0)">
<rect y="-38.2793" width="205" height="259.627" rx="9" fill="white" fill-opacity="0.5"/>
</g>
<path d="M272.73 3.92578H264.703V7.17188H272.145V10.5469H264.703V18H260.227V0.550781H272.73V3.92578ZM288.457 18H275.836V0.550781H288.457V3.92578H280.312V6.9375H287.871V10.3125H280.312V14.625H288.457V18ZM306.211 12.5156C306.211 14.2344 305.48 15.6328 304.02 16.7109C302.566 17.7812 300.59 18.3164 298.09 18.3164C296.645 18.3164 295.383 18.1914 294.305 17.9414C293.234 17.6836 292.23 17.3594 291.293 16.9688V12.7852H291.785C292.715 13.5273 293.754 14.0977 294.902 14.4961C296.059 14.8945 297.168 15.0938 298.23 15.0938C298.504 15.0938 298.863 15.0703 299.309 15.0234C299.754 14.9766 300.117 14.8984 300.398 14.7891C300.742 14.6484 301.023 14.4727 301.242 14.2617C301.469 14.0508 301.582 13.7383 301.582 13.3242C301.582 12.9414 301.418 12.6133 301.09 12.3398C300.77 12.0586 300.297 11.8438 299.672 11.6953C299.016 11.5391 298.32 11.3945 297.586 11.2617C296.859 11.1211 296.176 10.9453 295.535 10.7344C294.066 10.2578 293.008 9.61328 292.359 8.80078C291.719 7.98047 291.398 6.96484 291.398 5.75391C291.398 4.12891 292.125 2.80469 293.578 1.78125C295.039 0.75 296.914 0.234375 299.203 0.234375C300.352 0.234375 301.484 0.347656 302.602 0.574219C303.727 0.792969 304.699 1.07031 305.52 1.40625V5.42578H305.039C304.336 4.86328 303.473 4.39453 302.449 4.01953C301.434 3.63672 300.395 3.44531 299.332 3.44531C298.957 3.44531 298.582 3.47266 298.207 3.52734C297.84 3.57422 297.484 3.66797 297.141 3.80859C296.836 3.92578 296.574 4.10547 296.355 4.34766C296.137 4.58203 296.027 4.85156 296.027 5.15625C296.027 5.61719 296.203 5.97266 296.555 6.22266C296.906 6.46484 297.57 6.6875 298.547 6.89062C299.188 7.02344 299.801 7.15234 300.387 7.27734C300.98 7.40234 301.617 7.57422 302.297 7.79297C303.633 8.23047 304.617 8.82812 305.25 9.58594C305.891 10.3359 306.211 11.3125 306.211 12.5156ZM322.957 3.92578H317.508V18H313.008V3.92578H307.559V0.550781H322.957V3.92578ZM335.098 18H324.879V14.9062H327.738V3.64453H324.879V0.550781H335.098V3.64453H332.238V14.9062H335.098V18ZM354.586 0.550781L348.223 18H343.184L336.82 0.550781H341.543L345.762 12.8086L349.98 0.550781H354.586ZM373.219 18H368.566L367.359 14.4727H360.891L359.684 18H355.148L361.594 0.550781H366.773L373.219 18ZM366.27 11.2734L364.125 5.01562L361.98 11.2734H366.27ZM388.312 18H375.727V0.550781H380.227V14.625H388.312V18ZM274.629 35.0586C274.629 35.8398 274.492 36.6055 274.219 37.3555C273.945 38.0977 273.555 38.7227 273.047 39.2305C272.352 39.918 271.574 40.4375 270.715 40.7891C269.863 41.1406 268.801 41.3164 267.527 41.3164H264.727V47H260.227V29.5508H267.633C268.742 29.5508 269.676 29.6484 270.434 29.8438C271.199 30.0312 271.875 30.3164 272.461 30.6992C273.164 31.1602 273.699 31.75 274.066 32.4688C274.441 33.1875 274.629 34.0508 274.629 35.0586ZM269.977 35.1641C269.977 34.6719 269.844 34.25 269.578 33.8984C269.312 33.5391 269.004 33.2891 268.652 33.1484C268.184 32.9609 267.727 32.8594 267.281 32.8438C266.836 32.8203 266.242 32.8086 265.5 32.8086H264.727V38.0352H266.016C266.781 38.0352 267.41 37.9883 267.902 37.8945C268.402 37.8008 268.82 37.6133 269.156 37.332C269.445 37.082 269.652 36.7852 269.777 36.4414C269.91 36.0898 269.977 35.6641 269.977 35.1641ZM293.953 47H289.301L288.094 43.4727H281.625L280.418 47H275.883L282.328 29.5508H287.508L293.953 47ZM287.004 40.2734L284.859 34.0156L282.715 40.2734H287.004ZM310.43 41.5156C310.43 43.2344 309.699 44.6328 308.238 45.7109C306.785 46.7812 304.809 47.3164 302.309 47.3164C300.863 47.3164 299.602 47.1914 298.523 46.9414C297.453 46.6836 296.449 46.3594 295.512 45.9688V41.7852H296.004C296.934 42.5273 297.973 43.0977 299.121 43.4961C300.277 43.8945 301.387 44.0938 302.449 44.0938C302.723 44.0938 303.082 44.0703 303.527 44.0234C303.973 43.9766 304.336 43.8984 304.617 43.7891C304.961 43.6484 305.242 43.4727 305.461 43.2617C305.688 43.0508 305.801 42.7383 305.801 42.3242C305.801 41.9414 305.637 41.6133 305.309 41.3398C304.988 41.0586 304.516 40.8438 303.891 40.6953C303.234 40.5391 302.539 40.3945 301.805 40.2617C301.078 40.1211 300.395 39.9453 299.754 39.7344C298.285 39.2578 297.227 38.6133 296.578 37.8008C295.938 36.9805 295.617 35.9648 295.617 34.7539C295.617 33.1289 296.344 31.8047 297.797 30.7812C299.258 29.75 301.133 29.2344 303.422 29.2344C304.57 29.2344 305.703 29.3477 306.82 29.5742C307.945 29.793 308.918 30.0703 309.738 30.4062V34.4258H309.258C308.555 33.8633 307.691 33.3945 306.668 33.0195C305.652 32.6367 304.613 32.4453 303.551 32.4453C303.176 32.4453 302.801 32.4727 302.426 32.5273C302.059 32.5742 301.703 32.668 301.359 32.8086C301.055 32.9258 300.793 33.1055 300.574 33.3477C300.355 33.582 300.246 33.8516 300.246 34.1562C300.246 34.6172 300.422 34.9727 300.773 35.2227C301.125 35.4648 301.789 35.6875 302.766 35.8906C303.406 36.0234 304.02 36.1523 304.605 36.2773C305.199 36.4023 305.836 36.5742 306.516 36.793C307.852 37.2305 308.836 37.8281 309.469 38.5859C310.109 39.3359 310.43 40.3125 310.43 41.5156ZM327.492 41.5156C327.492 43.2344 326.762 44.6328 325.301 45.7109C323.848 46.7812 321.871 47.3164 319.371 47.3164C317.926 47.3164 316.664 47.1914 315.586 46.9414C314.516 46.6836 313.512 46.3594 312.574 45.9688V41.7852H313.066C313.996 42.5273 315.035 43.0977 316.184 43.4961C317.34 43.8945 318.449 44.0938 319.512 44.0938C319.785 44.0938 320.145 44.0703 320.59 44.0234C321.035 43.9766 321.398 43.8984 321.68 43.7891C322.023 43.6484 322.305 43.4727 322.523 43.2617C322.75 43.0508 322.863 42.7383 322.863 42.3242C322.863 41.9414 322.699 41.6133 322.371 41.3398C322.051 41.0586 321.578 40.8438 320.953 40.6953C320.297 40.5391 319.602 40.3945 318.867 40.2617C318.141 40.1211 317.457 39.9453 316.816 39.7344C315.348 39.2578 314.289 38.6133 313.641 37.8008C313 36.9805 312.68 35.9648 312.68 34.7539C312.68 33.1289 313.406 31.8047 314.859 30.7812C316.32 29.75 318.195 29.2344 320.484 29.2344C321.633 29.2344 322.766 29.3477 323.883 29.5742C325.008 29.793 325.98 30.0703 326.801 30.4062V34.4258H326.32C325.617 33.8633 324.754 33.3945 323.73 33.0195C322.715 32.6367 321.676 32.4453 320.613 32.4453C320.238 32.4453 319.863 32.4727 319.488 32.5273C319.121 32.5742 318.766 32.668 318.422 32.8086C318.117 32.9258 317.855 33.1055 317.637 33.3477C317.418 33.582 317.309 33.8516 317.309 34.1562C317.309 34.6172 317.484 34.9727 317.836 35.2227C318.188 35.4648 318.852 35.6875 319.828 35.8906C320.469 36.0234 321.082 36.1523 321.668 36.2773C322.262 36.4023 322.898 36.5742 323.578 36.793C324.914 37.2305 325.898 37.8281 326.531 38.5859C327.172 39.3359 327.492 40.3125 327.492 41.5156Z" fill="black"/>
</svg>
